  0
SECTION
  2
HEADER
  9
$ACADVER
  1
AC1014
  9
$HANDSEED
  5
FFFF
  9
$MEASUREMENT
 70
     1
  0
ENDSEC
  0
SECTION
  2
TABLES
  0
TABLE
  2
VPORT
  5
8
330
0
100
AcDbSymbolTable
 70
     4
  0
VPORT
  5
2E
330
8
100
AcDbSymbolTableRecord
100
AcDbViewportTableRecord
  2
*ACTIVE
 70
     0
 10
0.0
 20
0.0
 11
1.0
 21
1.0
 12
210.0
 22
148.5
 13
0.0
 23
0.0
 14
10.0
 24
10.0
 15
10.0
 25
10.0
 16
0.0
 26
0.0
 36
1.0
 17
0.0
 27
0.0
 37
0.0
 40
341.0
 41
1.24
 42
50.0
 43
0.0
 44
0.0
 50
0.0
 51
0.0
 71
     0
 72
   100
 73
     1
 74
     3
 75
     0
 76
     0
 77
     0
 78
     0
  0
ENDTAB
  0
TABLE
  2
LTYPE
  5
5
330
0
100
AcDbSymbolTable
 70
     1
  0
LTYPE
  5
14
330
5
100
AcDbSymbolTableRecord
100
AcDbLinetypeTableRecord
  2
BYBLOCK
 70
     0
  3

 72
    65
 73
     0
 40
0.0
  0
LTYPE
  5
15
330
5
100
AcDbSymbolTableRecord
100
AcDbLinetypeTableRecord
  2
BYLAYER
 70
     0
  3

 72
    65
 73
     0
 40
0.0
  0
LTYPE
  5
16
330
5
100
AcDbSymbolTableRecord
100
AcDbLinetypeTableRecord
  2
CONTINUOUS
 70
     0
  3
Solid line
 72
    65
 73
     0
 40
0.0
  0
ENDTAB
  0
TABLE
  2
LAYER
  5
2
100
AcDbSymbolTable
 70
2
  0
LAYER
  5
50
100
AcDbSymbolTableRecord
100
AcDbLayerTableRecord
  2
0
 70
0
  6
CONTINUOUS
  0
LAYER
  5
51
100
AcDbSymbolTableRecord
100
AcDbLayerTableRecord
  2
Layer_1
 70
0
  6
CONTINUOUS
  0
ENDTAB
  0
TABLE
  2
STYLE
  5
3
330
0
100
AcDbSymbolTable
 70
     1
  0
STYLE
  5
11
330
3
100
AcDbSymbolTableRecord
100
AcDbTextStyleTableRecord
  2
STANDARD
 70
     0
 40
0.0
 41
1.0
 50
0.0
 71
     0
 42
2.5
  3
txt
  4

  0
ENDTAB
  0
TABLE
  2
VIEW
  5
6
330
0
100
AcDbSymbolTable
 70
     0
  0
ENDTAB
  0
TABLE
  2
UCS
  5
7
330
0
100
AcDbSymbolTable
 70
     0
  0
ENDTAB
  0
TABLE
  2
APPID
  5
9
330
0
100
AcDbSymbolTable
 70
     2
  0
APPID
  5
12
330
9
100
AcDbSymbolTableRecord
100
AcDbRegAppTableRecord
  2
ACAD
 70
     0
  0
ENDTAB
  0
TABLE
  2
DIMSTYLE
  5
A
330
0
100
AcDbSymbolTable
 70
     1
  0
DIMSTYLE
105
27
330
A
100
AcDbSymbolTableRecord
100
AcDbDimStyleTableRecord
  2
ISO-25
 70
     0
  3

  4

  5

  6

  7

 40
1.0
 41
2.5
 42
0.625
 43
3.75
 44
1.25
 45
0.0
 46
0.0
 47
0.0
 48
0.0
140
2.5
141
2.5
142
0.0
143
0.03937007874016
144
1.0
145
0.0
146
1.0
147
0.625
 71
     0
 72
     0
 73
     0
 74
     0
 75
     0
 76
     0
 77
     1
 78
     8
170
     0
171
     3
172
     1
173
     0
174
     0
175
     0
176
     0
177
     0
178
     0
270
     2
271
     2
272
     2
273
     2
274
     3
340
11
275
     0
280
     0
281
     0
282
     0
283
     0
284
     8
285
     0
286
     0
287
     3
288
     0
  0
ENDTAB
  0
TABLE
  2
BLOCK_RECORD
  5
1
330
0
100
AcDbSymbolTable
 70
     1
  0
BLOCK_RECORD
  5
1F
330
1
100
AcDbSymbolTableRecord
100
AcDbBlockTableRecord
  2
*MODEL_SPACE
  0
BLOCK_RECORD
  5
1B
330
1
100
AcDbSymbolTableRecord
100
AcDbBlockTableRecord
  2
*PAPER_SPACE
  0
ENDTAB
  0
ENDSEC
  0
SECTION
  2
BLOCKS
  0
BLOCK
  5
20
330
1F
100
AcDbEntity
  8
0
100
AcDbBlockBegin
  2
*MODEL_SPACE
 70
     0
 10
0.0
 20
0.0
 30
0.0
  3
*MODEL_SPACE
  1

  0
ENDBLK
  5
21
330
1F
100
AcDbEntity
  8
0
100
AcDbBlockEnd
  0
BLOCK
  5
1C
330
1B
100
AcDbEntity
 67
     1
  8
0
100
AcDbBlockBegin
  2
*PAPER_SPACE
  1

  0
ENDBLK
  5
1D
330
1B
100
AcDbEntity
 67
     1
  8
0
100
AcDbBlockEnd
  0
ENDSEC
  0
SECTION
  2
ENTITIES
  0
LWPOLYLINE
  5
100
100
AcDbEntity
  8
Layer_1
 62
7
100
AcDbPolyline
 90
4
 70
1
 10
4.550000
 20
78.833307
 30
0.0
 10
8.550000
 20
78.833307
 30
0.0
 10
8.550000
 20
74.833307
 30
0.0
 10
4.550000
 20
74.833307
 30
0.0
  0
LWPOLYLINE
  5
101
100
AcDbEntity
  8
Layer_1
 62
7
100
AcDbPolyline
 90
4
 70
1
 10
12.550000
 20
78.833307
 30
0.0
 10
16.549999
 20
78.833307
 30
0.0
 10
16.549999
 20
74.833307
 30
0.0
 10
12.550000
 20
74.833307
 30
0.0
  0
LWPOLYLINE
  5
102
100
AcDbEntity
  8
Layer_1
 62
7
100
AcDbPolyline
 90
4
 70
1
 10
20.549999
 20
78.833307
 30
0.0
 10
24.549999
 20
78.833307
 30
0.0
 10
24.549999
 20
74.833307
 30
0.0
 10
20.549999
 20
74.833307
 30
0.0
  0
LWPOLYLINE
  5
103
100
AcDbEntity
  8
Layer_1
 62
7
100
AcDbPolyline
 90
4
 70
1
 10
28.549989
 20
78.833307
 30
0.0
 10
32.549989
 20
78.833307
 30
0.0
 10
32.549989
 20
74.833307
 30
0.0
 10
28.549989
 20
74.833307
 30
0.0
  0
LWPOLYLINE
  5
104
100
AcDbEntity
  8
Layer_1
 62
7
100
AcDbPolyline
 90
4
 70
1
 10
36.549989
 20
78.833307
 30
0.0
 10
40.549989
 20
78.833307
 30
0.0
 10
40.549989
 20
74.833307
 30
0.0
 10
36.549989
 20
74.833307
 30
0.0
  0
LWPOLYLINE
  5
105
100
AcDbEntity
  8
Layer_1
 62
7
100
AcDbPolyline
 90
4
 70
1
 10
44.549978
 20
78.833307
 30
0.0
 10
48.549978
 20
78.833307
 30
0.0
 10
48.549978
 20
74.833307
 30
0.0
 10
44.549978
 20
74.833307
 30
0.0
  0
LWPOLYLINE
  5
106
100
AcDbEntity
  8
Layer_1
 62
7
100
AcDbPolyline
 90
4
 70
1
 10
52.549978
 20
78.833307
 30
0.0
 10
56.549978
 20
78.833307
 30
0.0
 10
56.549978
 20
74.833307
 30
0.0
 10
52.549978
 20
74.833307
 30
0.0
  0
LWPOLYLINE
  5
107
100
AcDbEntity
  8
Layer_1
 62
7
100
AcDbPolyline
 90
4
 70
1
 10
60.549978
 20
78.833307
 30
0.0
 10
64.549978
 20
78.833307
 30
0.0
 10
64.549978
 20
74.833307
 30
0.0
 10
60.549978
 20
74.833307
 30
0.0
  0
LWPOLYLINE
  5
108
100
AcDbEntity
  8
Layer_1
 62
7
100
AcDbPolyline
 90
4
 70
1
 10
68.549978
 20
78.833307
 30
0.0
 10
72.549977
 20
78.833307
 30
0.0
 10
72.549977
 20
74.833307
 30
0.0
 10
68.549978
 20
74.833307
 30
0.0
  0
LWPOLYLINE
  5
109
100
AcDbEntity
  8
Layer_1
 62
7
100
AcDbPolyline
 90
4
 70
1
 10
76.549977
 20
78.833307
 30
0.0
 10
80.549977
 20
78.833307
 30
0.0
 10
80.549977
 20
74.833307
 30
0.0
 10
76.549977
 20
74.833307
 30
0.0
  0
LWPOLYLINE
  5
10a
100
AcDbEntity
  8
Layer_1
 62
7
100
AcDbPolyline
 90
4
 70
1
 10
84.549977
 20
78.833307
 30
0.0
 10
88.549977
 20
78.833307
 30
0.0
 10
88.549977
 20
74.833307
 30
0.0
 10
84.549977
 20
74.833307
 30
0.0
  0
LWPOLYLINE
  5
10b
100
AcDbEntity
  8
Layer_1
 62
7
100
AcDbPolyline
 90
4
 70
1
 10
92.549977
 20
78.833307
 30
0.0
 10
96.549977
 20
78.833307
 30
0.0
 10
96.549977
 20
74.833307
 30
0.0
 10
92.549977
 20
74.833307
 30
0.0
  0
LWPOLYLINE
  5
10c
100
AcDbEntity
  8
Layer_1
 62
7
100
AcDbPolyline
 90
4
 70
1
 10
100.549976
 20
78.833307
 30
0.0
 10
104.549976
 20
78.833307
 30
0.0
 10
104.549976
 20
74.833307
 30
0.0
 10
100.549976
 20
74.833307
 30
0.0
  0
LWPOLYLINE
  5
10d
100
AcDbEntity
  8
Layer_1
 62
7
100
AcDbPolyline
 90
4
 70
1
 10
108.549976
 20
78.833307
 30
0.0
 10
112.549976
 20
78.833307
 30
0.0
 10
112.549976
 20
74.833307
 30
0.0
 10
108.549976
 20
74.833307
 30
0.0
  0
LWPOLYLINE
  5
10e
100
AcDbEntity
  8
Layer_1
 62
7
100
AcDbPolyline
 90
4
 70
1
 10
116.549976
 20
78.833307
 30
0.0
 10
120.549976
 20
78.833307
 30
0.0
 10
120.549976
 20
74.833307
 30
0.0
 10
116.549976
 20
74.833307
 30
0.0
  0
LWPOLYLINE
  5
10f
100
AcDbEntity
  8
Layer_1
 62
7
100
AcDbPolyline
 90
4
 70
1
 10
124.549976
 20
78.833307
 30
0.0
 10
128.549975
 20
78.833307
 30
0.0
 10
128.549975
 20
74.833307
 30
0.0
 10
124.549976
 20
74.833307
 30
0.0
  0
LWPOLYLINE
  5
110
100
AcDbEntity
  8
Layer_1
 62
7
100
AcDbPolyline
 90
4
 70
1
 10
132.549975
 20
78.833307
 30
0.0
 10
136.549975
 20
78.833307
 30
0.0
 10
136.549975
 20
74.833307
 30
0.0
 10
132.549975
 20
74.833307
 30
0.0
  0
LWPOLYLINE
  5
111
100
AcDbEntity
  8
Layer_1
 62
7
100
AcDbPolyline
 90
4
 70
1
 10
140.549975
 20
78.833307
 30
0.0
 10
144.549975
 20
78.833307
 30
0.0
 10
144.549975
 20
74.833307
 30
0.0
 10
140.549975
 20
74.833307
 30
0.0
  0
LWPOLYLINE
  5
112
100
AcDbEntity
  8
Layer_1
 62
7
100
AcDbPolyline
 90
4
 70
1
 10
148.549985
 20
78.833307
 30
0.0
 10
152.549985
 20
78.833307
 30
0.0
 10
152.549985
 20
74.833307
 30
0.0
 10
148.549985
 20
74.833307
 30
0.0
  0
LWPOLYLINE
  5
113
100
AcDbEntity
  8
Layer_1
 62
7
100
AcDbPolyline
 90
4
 70
1
 10
156.549984
 20
78.833307
 30
0.0
 10
160.549984
 20
78.833307
 30
0.0
 10
160.549984
 20
74.833307
 30
0.0
 10
156.549984
 20
74.833307
 30
0.0
  0
LWPOLYLINE
  5
114
100
AcDbEntity
  8
Layer_1
 62
7
100
AcDbPolyline
 90
4
 70
1
 10
164.549984
 20
78.833307
 30
0.0
 10
168.549984
 20
78.833307
 30
0.0
 10
168.549984
 20
74.833307
 30
0.0
 10
164.549984
 20
74.833307
 30
0.0
  0
LWPOLYLINE
  5
115
100
AcDbEntity
  8
Layer_1
 62
7
100
AcDbPolyline
 90
4
 70
1
 10
172.550044
 20
78.833307
 30
0.0
 10
176.550044
 20
78.833307
 30
0.0
 10
176.550044
 20
74.833307
 30
0.0
 10
172.550044
 20
74.833307
 30
0.0
  0
LWPOLYLINE
  5
116
100
AcDbEntity
  8
Layer_1
 62
7
100
AcDbPolyline
 90
4
 70
1
 10
180.549984
 20
78.833307
 30
0.0
 10
184.549983
 20
78.833307
 30
0.0
 10
184.549983
 20
74.833307
 30
0.0
 10
180.549984
 20
74.833307
 30
0.0
  0
LWPOLYLINE
  5
117
100
AcDbEntity
  8
Layer_1
 62
7
100
AcDbPolyline
 90
4
 70
1
 10
188.550043
 20
78.833307
 30
0.0
 10
192.550043
 20
78.833307
 30
0.0
 10
192.550043
 20
74.833307
 30
0.0
 10
188.550043
 20
74.833307
 30
0.0
  0
LWPOLYLINE
  5
118
100
AcDbEntity
  8
Layer_1
 62
7
100
AcDbPolyline
 90
4
 70
1
 10
196.549983
 20
78.833307
 30
0.0
 10
200.549983
 20
78.833307
 30
0.0
 10
200.549983
 20
74.833307
 30
0.0
 10
196.549983
 20
74.833307
 30
0.0
  0
LWPOLYLINE
  5
119
100
AcDbEntity
  8
Layer_1
 62
7
100
AcDbPolyline
 90
4
 70
1
 10
204.550043
 20
78.833307
 30
0.0
 10
208.550043
 20
78.833307
 30
0.0
 10
208.550043
 20
74.833307
 30
0.0
 10
204.550043
 20
74.833307
 30
0.0
  0
LWPOLYLINE
  5
11a
100
AcDbEntity
  8
Layer_1
 62
7
100
AcDbPolyline
 90
4
 70
1
 10
212.549982
 20
78.833307
 30
0.0
 10
216.549982
 20
78.833307
 30
0.0
 10
216.549982
 20
74.833307
 30
0.0
 10
212.549982
 20
74.833307
 30
0.0
  0
LWPOLYLINE
  5
11b
100
AcDbEntity
  8
Layer_1
 62
7
100
AcDbPolyline
 90
4
 70
1
 10
220.550042
 20
78.833307
 30
0.0
 10
224.550042
 20
78.833307
 30
0.0
 10
224.550042
 20
74.833307
 30
0.0
 10
220.550042
 20
74.833307
 30
0.0
  0
LWPOLYLINE
  5
11c
100
AcDbEntity
  8
Layer_1
 62
7
100
AcDbPolyline
 90
4
 70
1
 10
228.550042
 20
78.833307
 30
0.0
 10
232.550042
 20
78.833307
 30
0.0
 10
232.550042
 20
74.833307
 30
0.0
 10
228.550042
 20
74.833307
 30
0.0
  0
LWPOLYLINE
  5
11d
100
AcDbEntity
  8
Layer_1
 62
7
100
AcDbPolyline
 90
4
 70
1
 10
236.550042
 20
78.833307
 30
0.0
 10
240.550041
 20
78.833307
 30
0.0
 10
240.550041
 20
74.833307
 30
0.0
 10
236.550042
 20
74.833307
 30
0.0
  0
LWPOLYLINE
  5
11e
100
AcDbEntity
  8
Layer_1
 62
7
100
AcDbPolyline
 90
4
 70
1
 10
244.550041
 20
78.833307
 30
0.0
 10
248.550041
 20
78.833307
 30
0.0
 10
248.550041
 20
74.833307
 30
0.0
 10
244.550041
 20
74.833307
 30
0.0
  0
LWPOLYLINE
  5
11f
100
AcDbEntity
  8
Layer_1
 62
7
100
AcDbPolyline
 90
4
 70
1
 10
252.549981
 20
78.833307
 30
0.0
 10
256.549981
 20
78.833307
 30
0.0
 10
256.549981
 20
74.833307
 30
0.0
 10
252.549981
 20
74.833307
 30
0.0
  0
LWPOLYLINE
  5
120
100
AcDbEntity
  8
Layer_1
 62
7
100
AcDbPolyline
 90
4
 70
1
 10
260.549981
 20
78.833307
 30
0.0
 10
264.549981
 20
78.833307
 30
0.0
 10
264.549981
 20
74.833307
 30
0.0
 10
260.549981
 20
74.833307
 30
0.0
  0
LWPOLYLINE
  5
121
100
AcDbEntity
  8
Layer_1
 62
7
100
AcDbPolyline
 90
4
 70
1
 10
268.549980
 20
78.833307
 30
0.0
 10
272.549980
 20
78.833307
 30
0.0
 10
272.549980
 20
74.833307
 30
0.0
 10
268.549980
 20
74.833307
 30
0.0
  0
LWPOLYLINE
  5
122
100
AcDbEntity
  8
Layer_1
 62
7
100
AcDbPolyline
 90
4
 70
1
 10
276.549980
 20
78.833307
 30
0.0
 10
280.549980
 20
78.833307
 30
0.0
 10
280.549980
 20
74.833307
 30
0.0
 10
276.549980
 20
74.833307
 30
0.0
  0
LWPOLYLINE
  5
123
100
AcDbEntity
  8
Layer_1
 62
7
100
AcDbPolyline
 90
4
 70
1
 10
284.549980
 20
78.833307
 30
0.0
 10
288.549980
 20
78.833307
 30
0.0
 10
288.549980
 20
74.833307
 30
0.0
 10
284.549980
 20
74.833307
 30
0.0
  0
LWPOLYLINE
  5
124
100
AcDbEntity
  8
Layer_1
 62
7
100
AcDbPolyline
 90
4
 70
1
 10
292.549980
 20
78.833307
 30
0.0
 10
296.549979
 20
78.833307
 30
0.0
 10
296.549979
 20
74.833307
 30
0.0
 10
292.549980
 20
74.833307
 30
0.0
  0
LWPOLYLINE
  5
125
100
AcDbEntity
  8
Layer_1
 62
7
100
AcDbPolyline
 90
4
 70
1
 10
300.549979
 20
78.833307
 30
0.0
 10
304.549979
 20
78.833307
 30
0.0
 10
304.549979
 20
74.833307
 30
0.0
 10
300.549979
 20
74.833307
 30
0.0
  0
LWPOLYLINE
  5
126
100
AcDbEntity
  8
Layer_1
 62
7
100
AcDbPolyline
 90
4
 70
1
 10
308.550009
 20
78.833307
 30
0.0
 10
312.550009
 20
78.833307
 30
0.0
 10
312.550009
 20
74.833307
 30
0.0
 10
308.550009
 20
74.833307
 30
0.0
  0
LWPOLYLINE
  5
127
100
AcDbEntity
  8
Layer_1
 62
7
100
AcDbPolyline
 90
4
 70
1
 10
316.550009
 20
78.833307
 30
0.0
 10
320.550009
 20
78.833307
 30
0.0
 10
320.550009
 20
74.833307
 30
0.0
 10
316.550009
 20
74.833307
 30
0.0
  0
LWPOLYLINE
  5
128
100
AcDbEntity
  8
Layer_1
 62
7
100
AcDbPolyline
 90
4
 70
1
 10
4.550000
 20
86.833307
 30
0.0
 10
8.550000
 20
86.833307
 30
0.0
 10
8.550000
 20
82.833307
 30
0.0
 10
4.550000
 20
82.833307
 30
0.0
  0
LWPOLYLINE
  5
129
100
AcDbEntity
  8
Layer_1
 62
7
100
AcDbPolyline
 90
4
 70
1
 10
316.550009
 20
86.833307
 30
0.0
 10
320.550009
 20
86.833307
 30
0.0
 10
320.550009
 20
82.833307
 30
0.0
 10
316.550009
 20
82.833307
 30
0.0
  0
LWPOLYLINE
  5
12a
100
AcDbEntity
  8
Layer_1
 62
7
100
AcDbPolyline
 90
4
 70
1
 10
8.550000
 20
248.833331
 30
0.0
 10
12.550000
 20
248.833331
 30
0.0
 10
12.550000
 20
224.833332
 30
0.0
 10
8.550000
 20
224.833332
 30
0.0
  0
LWPOLYLINE
  5
12b
100
AcDbEntity
  8
Layer_1
 62
7
100
AcDbPolyline
 90
4
 70
1
 10
312.549979
 20
248.833331
 30
0.0
 10
316.549979
 20
248.833331
 30
0.0
 10
316.549979
 20
224.833332
 30
0.0
 10
312.549979
 20
224.833332
 30
0.0
  0
LWPOLYLINE
  5
12c
100
AcDbEntity
  8
Layer_1
 62
7
100
AcDbPolyline
 90
4
 70
1
 10
110.049976
 20
268.333360
 30
0.0
 10
115.049976
 20
268.333360
 30
0.0
 10
115.049976
 20
263.333361
 30
0.0
 10
110.049976
 20
263.333361
 30
0.0
  0
LWPOLYLINE
  5
12d
100
AcDbEntity
  8
Layer_1
 62
7
100
AcDbPolyline
 90
4
 70
1
 10
210.049982
 20
268.333360
 30
0.0
 10
215.049982
 20
268.333360
 30
0.0
 10
215.049982
 20
263.333361
 30
0.0
 10
210.049982
 20
263.333361
 30
0.0
  0
LWPOLYLINE
  5
12e
100
AcDbEntity
  8
Layer_1
 62
7
100
AcDbPolyline
 90
4
 70
1
 10
110.049976
 20
163.333334
 30
0.0
 10
115.049976
 20
163.333334
 30
0.0
 10
115.049976
 20
168.333334
 30
0.0
 10
110.049976
 20
168.333334
 30
0.0
  0
LWPOLYLINE
  5
12f
100
AcDbEntity
  8
Layer_1
 62
7
100
AcDbPolyline
 90
4
 70
1
 10
210.049982
 20
163.333334
 30
0.0
 10
215.049982
 20
163.333334
 30
0.0
 10
215.049982
 20
168.333334
 30
0.0
 10
210.049982
 20
168.333334
 30
0.0
  0
LWPOLYLINE
  5
130
100
AcDbEntity
  8
Layer_1
 62
7
100
AcDbPolyline
 90
4
 70
1
 10
122.549976
 20
255.833301
 30
0.0
 10
127.549975
 20
255.833301
 30
0.0
 10
127.549975
 20
250.833301
 30
0.0
 10
122.549976
 20
250.833301
 30
0.0
  0
LWPOLYLINE
  5
131
100
AcDbEntity
  8
Layer_1
 62
7
100
AcDbPolyline
 90
4
 70
1
 10
197.549923
 20
255.833301
 30
0.0
 10
202.549923
 20
255.833301
 30
0.0
 10
202.549923
 20
250.833301
 30
0.0
 10
197.549923
 20
250.833301
 30
0.0
  0
LWPOLYLINE
  5
132
100
AcDbEntity
  8
Layer_1
 62
7
100
AcDbPolyline
 90
4
 70
1
 10
122.549976
 20
175.833334
 30
0.0
 10
127.549975
 20
175.833334
 30
0.0
 10
127.549975
 20
180.833334
 30
0.0
 10
122.549976
 20
180.833334
 30
0.0
  0
LWPOLYLINE
  5
133
100
AcDbEntity
  8
Layer_1
 62
7
100
AcDbPolyline
 90
4
 70
1
 10
197.549923
 20
175.833334
 30
0.0
 10
202.549923
 20
175.833334
 30
0.0
 10
202.549923
 20
180.833334
 30
0.0
 10
197.549923
 20
180.833334
 30
0.0
  0
LWPOLYLINE
  5
134
100
AcDbEntity
  8
Layer_1
 62
7
100
AcDbPolyline
 90
4
 70
1
 10
158.549984
 20
219.833332
 30
0.0
 10
166.549984
 20
219.833332
 30
0.0
 10
166.549984
 20
211.833332
 30
0.0
 10
158.549984
 20
211.833332
 30
0.0
  0
LWPOLYLINE
  5
135
100
AcDbEntity
  8
Layer_1
 62
7
100
AcDbPolyline
 90
4
 70
1
 10
277.549980
 20
145.833245
 30
0.0
 10
256.549962
 20
145.833245
 30
0.0
 10
256.549962
 20
119.833261
 30
0.0
 10
277.549980
 20
119.833261
 30
0.0
  0
LWPOLYLINE
  5
136
100
AcDbEntity
  8
Layer_1
 62
7
100
AcDbPolyline
 90
4
 70
1
 10
47.549978
 20
145.833245
 30
0.0
 10
68.549999
 20
145.833245
 30
0.0
 10
68.549999
 20
119.833261
 30
0.0
 10
47.549978
 20
119.833261
 30
0.0
  0
LWPOLYLINE
  5
137
100
AcDbEntity
  8
Layer_1
 62
7
100
AcDbPolyline
 90
4
 70
1
 10
72.549977
 20
145.833245
 30
0.0
 10
91.549975
 20
145.833245
 30
0.0
 10
91.549975
 20
119.833246
 30
0.0
 10
72.549977
 20
119.833246
 30
0.0
  0
LWPOLYLINE
  5
138
100
AcDbEntity
  8
Layer_1
 62
7
100
AcDbPolyline
 90
4
 70
1
 10
95.549977
 20
145.833245
 30
0.0
 10
114.549974
 20
145.833245
 30
0.0
 10
114.549974
 20
119.833246
 30
0.0
 10
95.549977
 20
119.833246
 30
0.0
  0
LWPOLYLINE
  5
139
100
AcDbEntity
  8
Layer_1
 62
7
100
AcDbPolyline
 90
4
 70
1
 10
118.549976
 20
145.833245
 30
0.0
 10
137.549973
 20
145.833245
 30
0.0
 10
137.549973
 20
119.833246
 30
0.0
 10
118.549976
 20
119.833246
 30
0.0
  0
LWPOLYLINE
  5
13a
100
AcDbEntity
  8
Layer_1
 62
7
100
AcDbPolyline
 90
4
 70
1
 10
141.549975
 20
145.833245
 30
0.0
 10
160.549972
 20
145.833245
 30
0.0
 10
160.549972
 20
119.833246
 30
0.0
 10
141.549975
 20
119.833246
 30
0.0
  0
LWPOLYLINE
  5
13b
100
AcDbEntity
  8
Layer_1
 62
7
100
AcDbPolyline
 90
4
 70
1
 10
164.549984
 20
145.833245
 30
0.0
 10
183.549981
 20
145.833245
 30
0.0
 10
183.549981
 20
119.833246
 30
0.0
 10
164.549984
 20
119.833246
 30
0.0
  0
LWPOLYLINE
  5
13c
100
AcDbEntity
  8
Layer_1
 62
7
100
AcDbPolyline
 90
4
 70
1
 10
187.549983
 20
145.833245
 30
0.0
 10
206.549981
 20
145.833245
 30
0.0
 10
206.549981
 20
119.833246
 30
0.0
 10
187.549983
 20
119.833246
 30
0.0
  0
LWPOLYLINE
  5
13d
100
AcDbEntity
  8
Layer_1
 62
7
100
AcDbPolyline
 90
4
 70
1
 10
210.549982
 20
145.833245
 30
0.0
 10
229.549980
 20
145.833245
 30
0.0
 10
229.549980
 20
119.833246
 30
0.0
 10
210.549982
 20
119.833246
 30
0.0
  0
LWPOLYLINE
  5
13e
100
AcDbEntity
  8
Layer_1
 62
7
100
AcDbPolyline
 90
4
 70
1
 10
233.549982
 20
145.833245
 30
0.0
 10
252.549979
 20
145.833245
 30
0.0
 10
252.549979
 20
119.833246
 30
0.0
 10
233.549982
 20
119.833246
 30
0.0
  0
LWPOLYLINE
  5
13f
100
AcDbEntity
  8
Layer_1
 62
7
100
AcDbPolyline
 90
4
 70
1
 10
41.950018
 20
151.433285
 30
0.0
 10
45.150018
 20
151.433285
 30
0.0
 10
45.150018
 20
148.233285
 30
0.0
 10
41.950018
 20
148.233285
 30
0.0
  0
LWPOLYLINE
  5
140
100
AcDbEntity
  8
Layer_1
 62
7
100
AcDbPolyline
 90
4
 70
1
 10
41.950018
 20
117.433226
 30
0.0
 10
45.150018
 20
117.433226
 30
0.0
 10
45.150018
 20
114.233226
 30
0.0
 10
41.950018
 20
114.233226
 30
0.0
  0
LWPOLYLINE
  5
141
100
AcDbEntity
  8
Layer_1
 62
7
100
AcDbPolyline
 90
4
 70
1
 10
279.950010
 20
151.433285
 30
0.0
 10
283.150010
 20
151.433285
 30
0.0
 10
283.150010
 20
148.233285
 30
0.0
 10
279.950010
 20
148.233285
 30
0.0
  0
LWPOLYLINE
  5
142
100
AcDbEntity
  8
Layer_1
 62
7
100
AcDbPolyline
 90
4
 70
1
 10
279.950010
 20
117.433226
 30
0.0
 10
283.150010
 20
117.433226
 30
0.0
 10
283.150010
 20
114.233226
 30
0.0
 10
279.950010
 20
114.233226
 30
0.0
  0
LWPOLYLINE
  5
143
100
AcDbEntity
  8
Layer_1
 62
7
100
AcDbPolyline
 90
4
 70
1
 10
0.550000
 20
278.833360
 30
0.0
 10
324.549988
 20
278.833360
 30
0.0
 10
324.549988
 20
70.833367
 30
0.0
 10
0.550000
 20
70.833367
 30
0.0
  0
LWPOLYLINE
  5
144
100
AcDbEntity
  8
Layer_1
 62
7
100
AcDbPolyline
 90
4
 70
1
 10
28.950019
 20
112.433346
 30
0.0
 10
32.150019
 20
112.433346
 30
0.0
 10
32.150019
 20
109.233346
 30
0.0
 10
28.950019
 20
109.233346
 30
0.0
  0
LWPOLYLINE
  5
145
100
AcDbEntity
  8
Layer_1
 62
7
100
AcDbPolyline
 90
4
 70
1
 10
13.950020
 20
112.433346
 30
0.0
 10
17.150019
 20
112.433346
 30
0.0
 10
17.150019
 20
109.233346
 30
0.0
 10
13.950020
 20
109.233346
 30
0.0
  0
LWPOLYLINE
  5
146
100
AcDbEntity
  8
Layer_1
 62
7
100
AcDbPolyline
 90
4
 70
1
 10
13.950020
 20
97.433347
 30
0.0
 10
17.150019
 20
97.433347
 30
0.0
 10
17.150019
 20
94.233347
 30
0.0
 10
13.950020
 20
94.233347
 30
0.0
  0
LWPOLYLINE
  5
147
100
AcDbEntity
  8
Layer_1
 62
7
100
AcDbPolyline
 90
4
 70
1
 10
28.950019
 20
97.433347
 30
0.0
 10
32.150019
 20
97.433347
 30
0.0
 10
32.150019
 20
94.233347
 30
0.0
 10
28.950019
 20
94.233347
 30
0.0
  0
LWPOLYLINE
  5
148
100
AcDbEntity
  8
Layer_1
 62
7
100
AcDbPolyline
 90
4
 70
1
 10
307.949949
 20
97.433347
 30
0.0
 10
311.149949
 20
97.433347
 30
0.0
 10
311.149949
 20
94.233347
 30
0.0
 10
307.949949
 20
94.233347
 30
0.0
  0
LWPOLYLINE
  5
149
100
AcDbEntity
  8
Layer_1
 62
7
100
AcDbPolyline
 90
4
 70
1
 10
307.949949
 20
112.433346
 30
0.0
 10
311.149949
 20
112.433346
 30
0.0
 10
311.149949
 20
109.233346
 30
0.0
 10
307.949949
 20
109.233346
 30
0.0
  0
LWPOLYLINE
  5
14a
100
AcDbEntity
  8
Layer_1
 62
7
100
AcDbPolyline
 90
4
 70
1
 10
292.950010
 20
112.433346
 30
0.0
 10
296.150009
 20
112.433346
 30
0.0
 10
296.150009
 20
109.233346
 30
0.0
 10
292.950010
 20
109.233346
 30
0.0
  0
LWPOLYLINE
  5
14b
100
AcDbEntity
  8
Layer_1
 62
7
100
AcDbPolyline
 90
4
 70
1
 10
292.950010
 20
97.433347
 30
0.0
 10
296.150009
 20
97.433347
 30
0.0
 10
296.150009
 20
94.233347
 30
0.0
 10
292.950010
 20
94.233347
 30
0.0
  0
LWPOLYLINE
  5
14c
100
AcDbEntity
  8
Layer_1
 62
7
100
AcDbPolyline
 90
4
 70
1
 10
2.949960
 20
276.433340
 30
0.0
 10
6.149960
 20
276.433340
 30
0.0
 10
6.149960
 20
273.233340
 30
0.0
 10
2.949960
 20
273.233340
 30
0.0
  0
LWPOLYLINE
  5
14d
100
AcDbEntity
  8
Layer_1
 62
7
100
AcDbPolyline
 90
4
 70
1
 10
318.949949
 20
276.433340
 30
0.0
 10
322.149948
 20
276.433340
 30
0.0
 10
322.149948
 20
273.233340
 30
0.0
 10
318.949949
 20
273.233340
 30
0.0
  0
LWPOLYLINE
  5
14e
100
AcDbEntity
  8
Layer_1
 62
7
100
AcDbPolyline
 90
4
 70
1
 10
160.949954
 20
276.433340
 30
0.0
 10
164.149954
 20
276.433340
 30
0.0
 10
164.149954
 20
273.233340
 30
0.0
 10
160.949954
 20
273.233340
 30
0.0
  0
LWPOLYLINE
  5
14f
100
AcDbEntity
  8
Layer_1
 62
7
100
AcDbPolyline
 90
6
 70
1
 10
56.549971
 20
179.570584
 30
0.0
 10
60.549971
 20
186.498783
 30
0.0
 10
68.549971
 20
186.498783
 30
0.0
 10
72.549969
 20
179.570584
 30
0.0
 10
68.549970
 20
172.642384
 30
0.0
 10
60.549971
 20
172.642384
 30
0.0
  0
LWPOLYLINE
  5
150
100
AcDbEntity
  8
Layer_1
 62
7
100
AcDbPolyline
 90
6
 70
1
 10
41.549972
 20
188.230833
 30
0.0
 10
45.549971
 20
195.159033
 30
0.0
 10
53.549971
 20
195.159033
 30
0.0
 10
57.549970
 20
188.230833
 30
0.0
 10
53.549970
 20
181.302624
 30
0.0
 10
45.549971
 20
181.302624
 30
0.0
  0
LWPOLYLINE
  5
151
100
AcDbEntity
  8
Layer_1
 62
7
100
AcDbPolyline
 90
6
 70
1
 10
41.549972
 20
205.551353
 30
0.0
 10
45.549971
 20
212.479562
 30
0.0
 10
53.549971
 20
212.479562
 30
0.0
 10
57.549970
 20
205.551353
 30
0.0
 10
53.549970
 20
198.623153
 30
0.0
 10
45.549971
 20
198.623153
 30
0.0
  0
LWPOLYLINE
  5
152
100
AcDbEntity
  8
Layer_1
 62
7
100
AcDbPolyline
 90
6
 70
1
 10
41.549972
 20
222.871822
 30
0.0
 10
45.549971
 20
229.800022
 30
0.0
 10
53.549971
 20
229.800022
 30
0.0
 10
57.549970
 20
222.871822
 30
0.0
 10
53.549970
 20
215.943622
 30
0.0
 10
45.549971
 20
215.943622
 30
0.0
  0
LWPOLYLINE
  5
153
100
AcDbEntity
  8
Layer_1
 62
7
100
AcDbPolyline
 90
6
 70
1
 10
41.549972
 20
240.192341
 30
0.0
 10
45.549971
 20
247.120551
 30
0.0
 10
53.549971
 20
247.120551
 30
0.0
 10
57.549970
 20
240.192341
 30
0.0
 10
53.549970
 20
233.264142
 30
0.0
 10
45.549971
 20
233.264142
 30
0.0
  0
LWPOLYLINE
  5
154
100
AcDbEntity
  8
Layer_1
 62
7
100
AcDbPolyline
 90
6
 70
1
 10
56.549971
 20
196.891083
 30
0.0
 10
60.549971
 20
203.819283
 30
0.0
 10
68.549971
 20
203.819283
 30
0.0
 10
72.549969
 20
196.891073
 30
0.0
 10
68.549970
 20
189.962873
 30
0.0
 10
60.549971
 20
189.962873
 30
0.0
  0
LWPOLYLINE
  5
155
100
AcDbEntity
  8
Layer_1
 62
7
100
AcDbPolyline
 90
6
 70
1
 10
56.549971
 20
214.211602
 30
0.0
 10
60.549971
 20
221.139802
 30
0.0
 10
68.549971
 20
221.139802
 30
0.0
 10
72.549969
 20
214.211602
 30
0.0
 10
68.549970
 20
207.283403
 30
0.0
 10
60.549971
 20
207.283403
 30
0.0
  0
LWPOLYLINE
  5
156
100
AcDbEntity
  8
Layer_1
 62
7
100
AcDbPolyline
 90
6
 70
1
 10
56.549971
 20
231.532072
 30
0.0
 10
60.549971
 20
238.460271
 30
0.0
 10
68.549971
 20
238.460271
 30
0.0
 10
72.549969
 20
231.532072
 30
0.0
 10
68.549970
 20
224.603862
 30
0.0
 10
60.549971
 20
224.603862
 30
0.0
  0
LWPOLYLINE
  5
157
100
AcDbEntity
  8
Layer_1
 62
7
100
AcDbPolyline
 90
6
 70
1
 10
56.549971
 20
248.852591
 30
0.0
 10
60.549971
 20
255.780801
 30
0.0
 10
68.549971
 20
255.780801
 30
0.0
 10
72.549969
 20
248.852591
 30
0.0
 10
68.549970
 20
241.924391
 30
0.0
 10
60.549971
 20
241.924391
 30
0.0
  0
LWPOLYLINE
  5
158
100
AcDbEntity
  8
Layer_1
 62
7
100
AcDbPolyline
 90
6
 70
1
 10
71.549960
 20
170.910374
 30
0.0
 10
75.549960
 20
177.838574
 30
0.0
 10
83.549960
 20
177.838574
 30
0.0
 10
87.549959
 20
170.910374
 30
0.0
 10
83.549959
 20
163.982164
 30
0.0
 10
75.549960
 20
163.982164
 30
0.0
  0
LWPOLYLINE
  5
159
100
AcDbEntity
  8
Layer_1
 62
7
100
AcDbPolyline
 90
6
 70
1
 10
71.549960
 20
188.230863
 30
0.0
 10
75.549960
 20
195.159063
 30
0.0
 10
83.549960
 20
195.159063
 30
0.0
 10
87.549959
 20
188.230863
 30
0.0
 10
83.549959
 20
181.302664
 30
0.0
 10
75.549960
 20
181.302664
 30
0.0
  0
LWPOLYLINE
  5
15a
100
AcDbEntity
  8
Layer_1
 62
7
100
AcDbPolyline
 90
6
 70
1
 10
86.549960
 20
162.250124
 30
0.0
 10
90.549960
 20
169.178324
 30
0.0
 10
98.549959
 20
169.178324
 30
0.0
 10
102.549958
 20
162.250124
 30
0.0
 10
98.549958
 20
155.321924
 30
0.0
 10
90.549960
 20
155.321924
 30
0.0
  0
LWPOLYLINE
  5
15b
100
AcDbEntity
  8
Layer_1
 62
7
100
AcDbPolyline
 90
6
 70
1
 10
86.549960
 20
179.570614
 30
0.0
 10
90.549960
 20
186.498823
 30
0.0
 10
98.549959
 20
186.498823
 30
0.0
 10
102.549958
 20
179.570614
 30
0.0
 10
98.549958
 20
172.642414
 30
0.0
 10
90.549960
 20
172.642414
 30
0.0
  0
LWPOLYLINE
  5
15c
100
AcDbEntity
  8
Layer_1
 62
7
100
AcDbPolyline
 90
6
 70
1
 10
86.549960
 20
196.891113
 30
0.0
 10
90.549960
 20
203.819313
 30
0.0
 10
98.549959
 20
203.819313
 30
0.0
 10
102.549958
 20
196.891113
 30
0.0
 10
98.549958
 20
189.962913
 30
0.0
 10
90.549960
 20
189.962913
 30
0.0
  0
LWPOLYLINE
  5
15d
100
AcDbEntity
  8
Layer_1
 62
7
100
AcDbPolyline
 90
6
 70
1
 10
71.549960
 20
205.551363
 30
0.0
 10
75.549960
 20
212.479562
 30
0.0
 10
83.549960
 20
212.479562
 30
0.0
 10
87.549959
 20
205.551363
 30
0.0
 10
83.549959
 20
198.623153
 30
0.0
 10
75.549960
 20
198.623153
 30
0.0
  0
LWPOLYLINE
  5
15e
100
AcDbEntity
  8
Layer_1
 62
7
100
AcDbPolyline
 90
6
 70
1
 10
71.549960
 20
222.871882
 30
0.0
 10
75.549960
 20
229.800092
 30
0.0
 10
83.549960
 20
229.800092
 30
0.0
 10
87.549959
 20
222.871882
 30
0.0
 10
83.549959
 20
215.943682
 30
0.0
 10
75.549960
 20
215.943682
 30
0.0
  0
LWPOLYLINE
  5
15f
100
AcDbEntity
  8
Layer_1
 62
7
100
AcDbPolyline
 90
6
 70
1
 10
71.549960
 20
240.192351
 30
0.0
 10
75.549960
 20
247.120551
 30
0.0
 10
83.549960
 20
247.120551
 30
0.0
 10
87.549959
 20
240.192351
 30
0.0
 10
83.549959
 20
233.264152
 30
0.0
 10
75.549960
 20
233.264152
 30
0.0
  0
LWPOLYLINE
  5
160
100
AcDbEntity
  8
Layer_1
 62
7
100
AcDbPolyline
 90
6
 70
1
 10
71.549960
 20
257.512871
 30
0.0
 10
75.549960
 20
264.441081
 30
0.0
 10
83.549960
 20
264.441081
 30
0.0
 10
87.549959
 20
257.512871
 30
0.0
 10
83.549959
 20
250.584671
 30
0.0
 10
75.549960
 20
250.584671
 30
0.0
  0
LWPOLYLINE
  5
161
100
AcDbEntity
  8
Layer_1
 62
7
100
AcDbPolyline
 90
6
 70
1
 10
86.549960
 20
214.211612
 30
0.0
 10
90.549960
 20
221.139812
 30
0.0
 10
98.549959
 20
221.139812
 30
0.0
 10
102.549958
 20
214.211602
 30
0.0
 10
98.549958
 20
207.283403
 30
0.0
 10
90.549960
 20
207.283403
 30
0.0
  0
LWPOLYLINE
  5
162
100
AcDbEntity
  8
Layer_1
 62
7
100
AcDbPolyline
 90
6
 70
1
 10
86.549960
 20
231.532132
 30
0.0
 10
90.549960
 20
238.460331
 30
0.0
 10
98.549959
 20
238.460331
 30
0.0
 10
102.549958
 20
231.532132
 30
0.0
 10
98.549958
 20
224.603932
 30
0.0
 10
90.549960
 20
224.603932
 30
0.0
  0
LWPOLYLINE
  5
163
100
AcDbEntity
  8
Layer_1
 62
7
100
AcDbPolyline
 90
6
 70
1
 10
86.549960
 20
248.852601
 30
0.0
 10
90.549960
 20
255.780801
 30
0.0
 10
98.549959
 20
255.780801
 30
0.0
 10
102.549958
 20
248.852601
 30
0.0
 10
98.549958
 20
241.924391
 30
0.0
 10
90.549960
 20
241.924391
 30
0.0
  0
LWPOLYLINE
  5
164
100
AcDbEntity
  8
Layer_1
 62
7
100
AcDbPolyline
 90
6
 70
1
 10
86.549960
 20
266.173120
 30
0.0
 10
90.549960
 20
273.101330
 30
0.0
 10
98.549959
 20
273.101330
 30
0.0
 10
102.549958
 20
266.173120
 30
0.0
 10
98.549958
 20
259.244921
 30
0.0
 10
90.549960
 20
259.244921
 30
0.0
  0
LWPOLYLINE
  5
165
100
AcDbEntity
  8
Layer_1
 62
7
100
AcDbPolyline
 90
6
 70
1
 10
268.549887
 20
179.570574
 30
0.0
 10
264.549888
 20
186.498773
 30
0.0
 10
256.549888
 20
186.498773
 30
0.0
 10
252.549889
 20
179.570574
 30
0.0
 10
256.549889
 20
172.642374
 30
0.0
 10
264.549888
 20
172.642374
 30
0.0
  0
LWPOLYLINE
  5
166
100
AcDbEntity
  8
Layer_1
 62
7
100
AcDbPolyline
 90
6
 70
1
 10
283.549887
 20
188.230823
 30
0.0
 10
279.549887
 20
195.159023
 30
0.0
 10
271.549887
 20
195.159023
 30
0.0
 10
267.549888
 20
188.230823
 30
0.0
 10
271.549888
 20
181.302614
 30
0.0
 10
279.549887
 20
181.302614
 30
0.0
  0
LWPOLYLINE
  5
167
100
AcDbEntity
  8
Layer_1
 62
7
100
AcDbPolyline
 90
6
 70
1
 10
283.549887
 20
205.551343
 30
0.0
 10
279.549887
 20
212.479552
 30
0.0
 10
271.549887
 20
212.479552
 30
0.0
 10
267.549888
 20
205.551343
 30
0.0
 10
271.549888
 20
198.623143
 30
0.0
 10
279.549887
 20
198.623143
 30
0.0
  0
LWPOLYLINE
  5
168
100
AcDbEntity
  8
Layer_1
 62
7
100
AcDbPolyline
 90
6
 70
1
 10
283.549887
 20
222.871812
 30
0.0
 10
279.549887
 20
229.800012
 30
0.0
 10
271.549887
 20
229.800012
 30
0.0
 10
267.549888
 20
222.871812
 30
0.0
 10
271.549888
 20
215.943612
 30
0.0
 10
279.549887
 20
215.943612
 30
0.0
  0
LWPOLYLINE
  5
169
100
AcDbEntity
  8
Layer_1
 62
7
100
AcDbPolyline
 90
6
 70
1
 10
283.549887
 20
240.192331
 30
0.0
 10
279.549887
 20
247.120541
 30
0.0
 10
271.549887
 20
247.120541
 30
0.0
 10
267.549888
 20
240.192331
 30
0.0
 10
271.549888
 20
233.264132
 30
0.0
 10
279.549887
 20
233.264132
 30
0.0
  0
LWPOLYLINE
  5
16a
100
AcDbEntity
  8
Layer_1
 62
7
100
AcDbPolyline
 90
6
 70
1
 10
268.549887
 20
196.891073
 30
0.0
 10
264.549888
 20
203.819273
 30
0.0
 10
256.549888
 20
203.819273
 30
0.0
 10
252.549889
 20
196.891063
 30
0.0
 10
256.549889
 20
189.962863
 30
0.0
 10
264.549888
 20
189.962863
 30
0.0
  0
LWPOLYLINE
  5
16b
100
AcDbEntity
  8
Layer_1
 62
7
100
AcDbPolyline
 90
6
 70
1
 10
268.549887
 20
214.211592
 30
0.0
 10
264.549888
 20
221.139792
 30
0.0
 10
256.549888
 20
221.139792
 30
0.0
 10
252.549889
 20
214.211592
 30
0.0
 10
256.549889
 20
207.283393
 30
0.0
 10
264.549888
 20
207.283393
 30
0.0
  0
LWPOLYLINE
  5
16c
100
AcDbEntity
  8
Layer_1
 62
7
100
AcDbPolyline
 90
6
 70
1
 10
268.549887
 20
231.532062
 30
0.0
 10
264.549888
 20
238.460261
 30
0.0
 10
256.549888
 20
238.460261
 30
0.0
 10
252.549889
 20
231.532062
 30
0.0
 10
256.549889
 20
224.603852
 30
0.0
 10
264.549888
 20
224.603852
 30
0.0
  0
LWPOLYLINE
  5
16d
100
AcDbEntity
  8
Layer_1
 62
7
100
AcDbPolyline
 90
6
 70
1
 10
268.549887
 20
248.852581
 30
0.0
 10
264.549888
 20
255.780791
 30
0.0
 10
256.549888
 20
255.780791
 30
0.0
 10
252.549889
 20
248.852581
 30
0.0
 10
256.549889
 20
241.924381
 30
0.0
 10
264.549888
 20
241.924381
 30
0.0
  0
LWPOLYLINE
  5
16e
100
AcDbEntity
  8
Layer_1
 62
7
100
AcDbPolyline
 90
6
 70
1
 10
253.549888
 20
170.910334
 30
0.0
 10
249.549888
 20
177.838534
 30
0.0
 10
241.549888
 20
177.838534
 30
0.0
 10
237.549889
 20
170.910334
 30
0.0
 10
241.549889
 20
163.982124
 30
0.0
 10
249.549888
 20
163.982124
 30
0.0
  0
LWPOLYLINE
  5
16f
100
AcDbEntity
  8
Layer_1
 62
7
100
AcDbPolyline
 90
6
 70
1
 10
253.549888
 20
188.230823
 30
0.0
 10
249.549888
 20
195.159023
 30
0.0
 10
241.549888
 20
195.159023
 30
0.0
 10
237.549889
 20
188.230823
 30
0.0
 10
241.549889
 20
181.302624
 30
0.0
 10
249.549888
 20
181.302624
 30
0.0
  0
LWPOLYLINE
  5
170
100
AcDbEntity
  8
Layer_1
 62
7
100
AcDbPolyline
 90
6
 70
1
 10
238.549888
 20
162.250084
 30
0.0
 10
234.549889
 20
169.178284
 30
0.0
 10
226.549889
 20
169.178284
 30
0.0
 10
222.549890
 20
162.250084
 30
0.0
 10
226.549890
 20
155.321884
 30
0.0
 10
234.549889
 20
155.321884
 30
0.0
  0
LWPOLYLINE
  5
171
100
AcDbEntity
  8
Layer_1
 62
7
100
AcDbPolyline
 90
6
 70
1
 10
238.549888
 20
179.570574
 30
0.0
 10
234.549889
 20
186.498783
 30
0.0
 10
226.549889
 20
186.498783
 30
0.0
 10
222.549890
 20
179.570574
 30
0.0
 10
226.549890
 20
172.642374
 30
0.0
 10
234.549889
 20
172.642374
 30
0.0
  0
LWPOLYLINE
  5
172
100
AcDbEntity
  8
Layer_1
 62
7
100
AcDbPolyline
 90
6
 70
1
 10
238.549888
 20
196.891073
 30
0.0
 10
234.549889
 20
203.819273
 30
0.0
 10
226.549889
 20
203.819273
 30
0.0
 10
222.549890
 20
196.891073
 30
0.0
 10
226.549890
 20
189.962873
 30
0.0
 10
234.549889
 20
189.962873
 30
0.0
  0
LWPOLYLINE
  5
173
100
AcDbEntity
  8
Layer_1
 62
7
100
AcDbPolyline
 90
6
 70
1
 10
253.549888
 20
205.551323
 30
0.0
 10
249.549888
 20
212.479522
 30
0.0
 10
241.549888
 20
212.479522
 30
0.0
 10
237.549889
 20
205.551323
 30
0.0
 10
241.549889
 20
198.623113
 30
0.0
 10
249.549888
 20
198.623113
 30
0.0
  0
LWPOLYLINE
  5
174
100
AcDbEntity
  8
Layer_1
 62
7
100
AcDbPolyline
 90
6
 70
1
 10
253.549888
 20
222.871842
 30
0.0
 10
249.549888
 20
229.800052
 30
0.0
 10
241.549888
 20
229.800052
 30
0.0
 10
237.549889
 20
222.871842
 30
0.0
 10
241.549889
 20
215.943642
 30
0.0
 10
249.549888
 20
215.943642
 30
0.0
  0
LWPOLYLINE
  5
175
100
AcDbEntity
  8
Layer_1
 62
7
100
AcDbPolyline
 90
6
 70
1
 10
253.549888
 20
240.192311
 30
0.0
 10
249.549888
 20
247.120511
 30
0.0
 10
241.549888
 20
247.120511
 30
0.0
 10
237.549889
 20
240.192311
 30
0.0
 10
241.549889
 20
233.264112
 30
0.0
 10
249.549888
 20
233.264112
 30
0.0
  0
LWPOLYLINE
  5
176
100
AcDbEntity
  8
Layer_1
 62
7
100
AcDbPolyline
 90
6
 70
1
 10
253.549888
 20
257.512831
 30
0.0
 10
249.549888
 20
264.441041
 30
0.0
 10
241.549888
 20
264.441041
 30
0.0
 10
237.549889
 20
257.512831
 30
0.0
 10
241.549889
 20
250.584631
 30
0.0
 10
249.549888
 20
250.584631
 30
0.0
  0
LWPOLYLINE
  5
177
100
AcDbEntity
  8
Layer_1
 62
7
100
AcDbPolyline
 90
6
 70
1
 10
238.549888
 20
214.211572
 30
0.0
 10
234.549889
 20
221.139772
 30
0.0
 10
226.549889
 20
221.139772
 30
0.0
 10
222.549890
 20
214.211562
 30
0.0
 10
226.549890
 20
207.283363
 30
0.0
 10
234.549889
 20
207.283363
 30
0.0
  0
LWPOLYLINE
  5
178
100
AcDbEntity
  8
Layer_1
 62
7
100
AcDbPolyline
 90
6
 70
1
 10
238.549888
 20
231.532092
 30
0.0
 10
234.549889
 20
238.460291
 30
0.0
 10
226.549889
 20
238.460291
 30
0.0
 10
222.549890
 20
231.532092
 30
0.0
 10
226.549890
 20
224.603892
 30
0.0
 10
234.549889
 20
224.603892
 30
0.0
  0
LWPOLYLINE
  5
179
100
AcDbEntity
  8
Layer_1
 62
7
100
AcDbPolyline
 90
6
 70
1
 10
238.549888
 20
248.852561
 30
0.0
 10
234.549889
 20
255.780761
 30
0.0
 10
226.549889
 20
255.780761
 30
0.0
 10
222.549890
 20
248.852561
 30
0.0
 10
226.549890
 20
241.924351
 30
0.0
 10
234.549889
 20
241.924351
 30
0.0
  0
LWPOLYLINE
  5
17a
100
AcDbEntity
  8
Layer_1
 62
7
100
AcDbPolyline
 90
6
 70
1
 10
238.549888
 20
266.173080
 30
0.0
 10
234.549889
 20
273.101290
 30
0.0
 10
226.549889
 20
273.101290
 30
0.0
 10
222.549890
 20
266.173080
 30
0.0
 10
226.549890
 20
259.244881
 30
0.0
 10
234.549889
 20
259.244881
 30
0.0
  0
LWPOLYLINE
  5
17b
100
AcDbEntity
  8
Layer_1
 62
7
100
AcDbPolyline
 90
4
 70
1
 10
148.949955
 20
276.433340
 30
0.0
 10
152.149955
 20
276.433340
 30
0.0
 10
152.149955
 20
273.233340
 30
0.0
 10
148.949955
 20
273.233340
 30
0.0
  0
LWPOLYLINE
  5
17c
100
AcDbEntity
  8
Layer_1
 62
7
100
AcDbPolyline
 90
4
 70
1
 10
172.949954
 20
276.433340
 30
0.0
 10
176.149954
 20
276.433340
 30
0.0
 10
176.149954
 20
273.233340
 30
0.0
 10
172.949954
 20
273.233340
 30
0.0
  0
LWPOLYLINE
  5
17d
100
AcDbEntity
  8
Layer_1
 62
7
100
AcDbPolyline
 90
4
 70
1
 10
160.949954
 20
268.433370
 30
0.0
 10
164.149954
 20
268.433370
 30
0.0
 10
164.149954
 20
265.233371
 30
0.0
 10
160.949954
 20
265.233371
 30
0.0
  0
LWPOLYLINE
  5
17e
100
AcDbEntity
  8
Layer_1
 62
7
100
AcDbPolyline
 90
4
 70
1
 10
148.949955
 20
268.433340
 30
0.0
 10
152.149955
 20
268.433340
 30
0.0
 10
152.149955
 20
265.233341
 30
0.0
 10
148.949955
 20
265.233341
 30
0.0
  0
LWPOLYLINE
  5
17f
100
AcDbEntity
  8
Layer_1
 62
7
100
AcDbPolyline
 90
4
 70
1
 10
172.949954
 20
268.433340
 30
0.0
 10
176.149954
 20
268.433340
 30
0.0
 10
176.149954
 20
265.233341
 30
0.0
 10
172.949954
 20
265.233341
 30
0.0
  0
LWPOLYLINE
  5
180
100
AcDbEntity
  8
Layer_1
 62
7
100
AcDbPolyline
 90
6
 70
1
 10
139.549968
 20
224.493582
 30
0.0
 10
143.549968
 20
231.421792
 30
0.0
 10
151.549968
 20
231.421792
 30
0.0
 10
155.549966
 20
224.493582
 30
0.0
 10
151.549967
 20
217.565382
 30
0.0
 10
143.549968
 20
217.565382
 30
0.0
  0
LWPOLYLINE
  5
181
100
AcDbEntity
  8
Layer_1
 62
7
100
AcDbPolyline
 90
6
 70
1
 10
154.549967
 20
233.153842
 30
0.0
 10
158.549967
 20
240.082051
 30
0.0
 10
166.549967
 20
240.082051
 30
0.0
 10
170.549966
 20
233.153842
 30
0.0
 10
166.549966
 20
226.225642
 30
0.0
 10
158.549967
 20
226.225642
 30
0.0
  0
LWPOLYLINE
  5
182
100
AcDbEntity
  8
Layer_1
 62
7
100
AcDbPolyline
 90
6
 70
1
 10
139.549968
 20
207.173083
 30
0.0
 10
143.549968
 20
214.101292
 30
0.0
 10
151.549968
 20
214.101292
 30
0.0
 10
155.549966
 20
207.173083
 30
0.0
 10
151.549967
 20
200.244883
 30
0.0
 10
143.549968
 20
200.244883
 30
0.0
  0
LWPOLYLINE
  5
183
100
AcDbEntity
  8
Layer_1
 62
7
100
AcDbPolyline
 90
6
 70
1
 10
154.549967
 20
198.512823
 30
0.0
 10
158.549967
 20
205.441033
 30
0.0
 10
166.549967
 20
205.441033
 30
0.0
 10
170.549966
 20
198.512823
 30
0.0
 10
166.549966
 20
191.584623
 30
0.0
 10
158.549967
 20
191.584623
 30
0.0
  0
LWPOLYLINE
  5
184
100
AcDbEntity
  8
Layer_1
 62
7
100
AcDbPolyline
 90
6
 70
1
 10
169.549957
 20
207.173093
 30
0.0
 10
173.549957
 20
214.101302
 30
0.0
 10
181.549956
 20
214.101302
 30
0.0
 10
185.549955
 20
207.173093
 30
0.0
 10
181.549955
 20
200.244893
 30
0.0
 10
173.549957
 20
200.244893
 30
0.0
  0
LWPOLYLINE
  5
185
100
AcDbEntity
  8
Layer_1
 62
7
100
AcDbPolyline
 90
6
 70
1
 10
169.549957
 20
224.493592
 30
0.0
 10
173.549957
 20
231.421802
 30
0.0
 10
181.549956
 20
231.421802
 30
0.0
 10
185.549955
 20
224.493592
 30
0.0
 10
181.549955
 20
217.565392
 30
0.0
 10
173.549957
 20
217.565392
 30
0.0
  0
LWPOLYLINE
  5
186
100
AcDbEntity
  8
Layer_1
 62
7
100
AcDbPolyline
 90
6
 70
1
 10
124.549969
 20
215.833322
 30
0.0
 10
128.549968
 20
222.761532
 30
0.0
 10
136.549968
 20
222.761532
 30
0.0
 10
140.549967
 20
215.833322
 30
0.0
 10
136.549967
 20
208.905123
 30
0.0
 10
128.549968
 20
208.905123
 30
0.0
  0
LWPOLYLINE
  5
187
100
AcDbEntity
  8
Layer_1
 62
7
100
AcDbPolyline
 90
6
 70
1
 10
184.549946
 20
215.833322
 30
0.0
 10
188.549946
 20
222.761532
 30
0.0
 10
196.549946
 20
222.761532
 30
0.0
 10
200.549945
 20
215.833322
 30
0.0
 10
196.549945
 20
208.905123
 30
0.0
 10
188.549946
 20
208.905123
 30
0.0
  0
LWPOLYLINE
  5
188
100
AcDbEntity
  8
Layer_1
 62
7
100
AcDbPolyline
 90
6
 70
1
 10
124.549969
 20
233.153842
 30
0.0
 10
128.549968
 20
240.082051
 30
0.0
 10
136.549968
 20
240.082051
 30
0.0
 10
140.549967
 20
233.153842
 30
0.0
 10
136.549967
 20
226.225642
 30
0.0
 10
128.549968
 20
226.225642
 30
0.0
  0
LWPOLYLINE
  5
189
100
AcDbEntity
  8
Layer_1
 62
7
100
AcDbPolyline
 90
6
 70
1
 10
124.549969
 20
198.512823
 30
0.0
 10
128.549968
 20
205.441033
 30
0.0
 10
136.549968
 20
205.441033
 30
0.0
 10
140.549967
 20
198.512823
 30
0.0
 10
136.549967
 20
191.584623
 30
0.0
 10
128.549968
 20
191.584623
 30
0.0
  0
LWPOLYLINE
  5
18a
100
AcDbEntity
  8
Layer_1
 62
7
100
AcDbPolyline
 90
6
 70
1
 10
184.549956
 20
233.153852
 30
0.0
 10
188.549956
 20
240.082061
 30
0.0
 10
196.549956
 20
240.082061
 30
0.0
 10
200.549955
 20
233.153852
 30
0.0
 10
196.549955
 20
226.225652
 30
0.0
 10
188.549956
 20
226.225652
 30
0.0
  0
LWPOLYLINE
  5
18b
100
AcDbEntity
  8
Layer_1
 62
7
100
AcDbPolyline
 90
6
 70
1
 10
184.549956
 20
198.512833
 30
0.0
 10
188.549956
 20
205.441043
 30
0.0
 10
196.549956
 20
205.441043
 30
0.0
 10
200.549955
 20
198.512833
 30
0.0
 10
196.549955
 20
191.584633
 30
0.0
 10
188.549956
 20
191.584633
 30
0.0
  0
LWPOLYLINE
  5
18c
100
AcDbEntity
  8
Layer_1
 62
7
100
AcDbPolyline
 90
4
 70
1
 10
92.549977
 20
45.041618
 30
0.0
 10
96.549977
 20
45.041618
 30
0.0
 10
96.549977
 20
41.041619
 30
0.0
 10
92.549977
 20
41.041619
 30
0.0
  0
LWPOLYLINE
  5
18d
100
AcDbEntity
  8
Layer_1
 62
7
100
AcDbPolyline
 90
4
 70
1
 10
100.549976
 20
45.041618
 30
0.0
 10
104.549976
 20
45.041618
 30
0.0
 10
104.549976
 20
41.041619
 30
0.0
 10
100.549976
 20
41.041619
 30
0.0
  0
LWPOLYLINE
  5
18e
100
AcDbEntity
  8
Layer_1
 62
7
100
AcDbPolyline
 90
4
 70
1
 10
108.549976
 20
45.041618
 30
0.0
 10
112.549976
 20
45.041618
 30
0.0
 10
112.549976
 20
41.041619
 30
0.0
 10
108.549976
 20
41.041619
 30
0.0
  0
LWPOLYLINE
  5
18f
100
AcDbEntity
  8
Layer_1
 62
7
100
AcDbPolyline
 90
4
 70
1
 10
116.549976
 20
45.041618
 30
0.0
 10
120.549976
 20
45.041618
 30
0.0
 10
120.549976
 20
41.041619
 30
0.0
 10
116.549976
 20
41.041619
 30
0.0
  0
LWPOLYLINE
  5
190
100
AcDbEntity
  8
Layer_1
 62
7
100
AcDbPolyline
 90
4
 70
1
 10
124.549976
 20
45.041618
 30
0.0
 10
128.549975
 20
45.041618
 30
0.0
 10
128.549975
 20
41.041619
 30
0.0
 10
124.549976
 20
41.041619
 30
0.0
  0
LWPOLYLINE
  5
191
100
AcDbEntity
  8
Layer_1
 62
7
100
AcDbPolyline
 90
4
 70
1
 10
132.549975
 20
45.041618
 30
0.0
 10
136.549975
 20
45.041618
 30
0.0
 10
136.549975
 20
41.041619
 30
0.0
 10
132.549975
 20
41.041619
 30
0.0
  0
LWPOLYLINE
  5
192
100
AcDbEntity
  8
Layer_1
 62
7
100
AcDbPolyline
 90
4
 70
1
 10
140.549975
 20
45.041618
 30
0.0
 10
144.549975
 20
45.041618
 30
0.0
 10
144.549975
 20
41.041619
 30
0.0
 10
140.549975
 20
41.041619
 30
0.0
  0
LWPOLYLINE
  5
193
100
AcDbEntity
  8
Layer_1
 62
7
100
AcDbPolyline
 90
4
 70
1
 10
148.550045
 20
45.041618
 30
0.0
 10
152.550045
 20
45.041618
 30
0.0
 10
152.550045
 20
41.041619
 30
0.0
 10
148.550045
 20
41.041619
 30
0.0
  0
LWPOLYLINE
  5
194
100
AcDbEntity
  8
Layer_1
 62
7
100
AcDbPolyline
 90
4
 70
1
 10
156.550084
 20
45.041618
 30
0.0
 10
160.550084
 20
45.041618
 30
0.0
 10
160.550084
 20
41.041619
 30
0.0
 10
156.550084
 20
41.041619
 30
0.0
  0
LWPOLYLINE
  5
195
100
AcDbEntity
  8
Layer_1
 62
7
100
AcDbPolyline
 90
4
 70
1
 10
164.550044
 20
45.041618
 30
0.0
 10
168.550044
 20
45.041618
 30
0.0
 10
168.550044
 20
41.041619
 30
0.0
 10
164.550044
 20
41.041619
 30
0.0
  0
LWPOLYLINE
  5
196
100
AcDbEntity
  8
Layer_1
 62
7
100
AcDbPolyline
 90
4
 70
1
 10
172.550014
 20
45.041618
 30
0.0
 10
176.550014
 20
45.041618
 30
0.0
 10
176.550014
 20
41.041619
 30
0.0
 10
172.550014
 20
41.041619
 30
0.0
  0
LWPOLYLINE
  5
197
100
AcDbEntity
  8
Layer_1
 62
7
100
AcDbPolyline
 90
4
 70
1
 10
180.550014
 20
45.041618
 30
0.0
 10
184.550013
 20
45.041618
 30
0.0
 10
184.550013
 20
41.041619
 30
0.0
 10
180.550014
 20
41.041619
 30
0.0
  0
LWPOLYLINE
  5
198
100
AcDbEntity
  8
Layer_1
 62
7
100
AcDbPolyline
 90
4
 70
1
 10
188.550013
 20
45.041618
 30
0.0
 10
192.550013
 20
45.041618
 30
0.0
 10
192.550013
 20
41.041619
 30
0.0
 10
188.550013
 20
41.041619
 30
0.0
  0
LWPOLYLINE
  5
199
100
AcDbEntity
  8
Layer_1
 62
7
100
AcDbPolyline
 90
4
 70
1
 10
196.549983
 20
45.041618
 30
0.0
 10
200.549983
 20
45.041618
 30
0.0
 10
200.549983
 20
41.041619
 30
0.0
 10
196.549983
 20
41.041619
 30
0.0
  0
LWPOLYLINE
  5
19a
100
AcDbEntity
  8
Layer_1
 62
7
100
AcDbPolyline
 90
4
 70
1
 10
204.549983
 20
45.041618
 30
0.0
 10
208.549983
 20
45.041618
 30
0.0
 10
208.549983
 20
41.041619
 30
0.0
 10
204.549983
 20
41.041619
 30
0.0
  0
LWPOLYLINE
  5
19b
100
AcDbEntity
  8
Layer_1
 62
7
100
AcDbPolyline
 90
4
 70
1
 10
212.550012
 20
45.041618
 30
0.0
 10
216.550012
 20
45.041618
 30
0.0
 10
216.550012
 20
41.041619
 30
0.0
 10
212.550012
 20
41.041619
 30
0.0
  0
LWPOLYLINE
  5
19c
100
AcDbEntity
  8
Layer_1
 62
7
100
AcDbPolyline
 90
4
 70
1
 10
220.550012
 20
45.041618
 30
0.0
 10
224.550012
 20
45.041618
 30
0.0
 10
224.550012
 20
41.041619
 30
0.0
 10
220.550012
 20
41.041619
 30
0.0
  0
LWPOLYLINE
  5
19d
100
AcDbEntity
  8
Layer_1
 62
7
100
AcDbPolyline
 90
4
 70
1
 10
228.549982
 20
45.041618
 30
0.0
 10
232.549982
 20
45.041618
 30
0.0
 10
232.549982
 20
41.041619
 30
0.0
 10
228.549982
 20
41.041619
 30
0.0
  0
LWPOLYLINE
  5
19e
100
AcDbEntity
  8
Layer_1
 62
7
100
AcDbPolyline
 90
5
 70
0
 10
4.550130
 20
32.249959
 30
0.0
 10
4.550130
 20
36.249949
 30
0.0
 10
0.550130
 20
36.249949
 30
0.0
 10
0.550130
 20
28.249959
 30
0.0
 10
0.550130
 20
28.249959
 30
0.0
  0
LWPOLYLINE
  5
19f
100
AcDbEntity
  8
Layer_1
 62
7
100
AcDbPolyline
 90
4
 70
0
 10
140.550155
 20
28.249959
 30
0.0
 10
140.550125
 20
36.249949
 30
0.0
 10
136.550125
 20
36.249949
 30
0.0
 10
136.550125
 20
32.249959
 30
0.0
  0
LWPOLYLINE
  5
1a0
100
AcDbEntity
  8
Layer_1
 62
7
100
AcDbPolyline
 90
66
 70
0
 10
4.550130
 20
32.249959
 30
0.0
 10
8.550130
 20
32.249959
 30
0.0
 10
8.550130
 20
36.249949
 30
0.0
 10
12.550130
 20
36.249949
 30
0.0
 10
12.550130
 20
32.249959
 30
0.0
 10
16.550139
 20
32.249959
 30
0.0
 10
16.550139
 20
36.249959
 30
0.0
 10
20.550139
 20
36.249959
 30
0.0
 10
20.550139
 20
32.249959
 30
0.0
 10
24.550139
 20
32.249959
 30
0.0
 10
24.550139
 20
36.249959
 30
0.0
 10
28.550139
 20
36.249959
 30
0.0
 10
28.550139
 20
32.249959
 30
0.0
 10
32.550139
 20
32.249959
 30
0.0
 10
32.550139
 20
36.249959
 30
0.0
 10
36.550139
 20
36.249959
 30
0.0
 10
36.550139
 20
32.249959
 30
0.0
 10
40.550139
 20
32.249959
 30
0.0
 10
40.550139
 20
36.249959
 30
0.0
 10
44.550138
 20
36.249959
 30
0.0
 10
44.550138
 20
32.249959
 30
0.0
 10
48.550138
 20
32.249959
 30
0.0
 10
48.550138
 20
36.249959
 30
0.0
 10
52.550138
 20
36.249959
 30
0.0
 10
52.550138
 20
32.249959
 30
0.0
 10
56.550138
 20
32.249959
 30
0.0
 10
56.550138
 20
36.249959
 30
0.0
 10
60.550138
 20
36.249959
 30
0.0
 10
60.550138
 20
32.249959
 30
0.0
 10
64.550138
 20
32.249959
 30
0.0
 10
64.550138
 20
36.249959
 30
0.0
 10
68.550138
 20
36.249959
 30
0.0
 10
68.550138
 20
32.249959
 30
0.0
 10
72.550137
 20
32.249959
 30
0.0
 10
72.550137
 20
36.249959
 30
0.0
 10
76.550137
 20
36.249959
 30
0.0
 10
76.550137
 20
32.249959
 30
0.0
 10
80.550137
 20
32.249959
 30
0.0
 10
80.550137
 20
36.249959
 30
0.0
 10
84.550137
 20
36.249959
 30
0.0
 10
84.550137
 20
32.249959
 30
0.0
 10
88.550137
 20
32.249959
 30
0.0
 10
88.550137
 20
36.249959
 30
0.0
 10
92.550157
 20
36.249959
 30
0.0
 10
92.550157
 20
32.249959
 30
0.0
 10
96.550157
 20
32.249959
 30
0.0
 10
96.550157
 20
36.249959
 30
0.0
 10
100.550156
 20
36.249959
 30
0.0
 10
100.550156
 20
32.249959
 30
0.0
 10
104.550146
 20
32.249959
 30
0.0
 10
104.550146
 20
36.249959
 30
0.0
 10
108.550146
 20
36.249959
 30
0.0
 10
108.550146
 20
32.249959
 30
0.0
 10
112.550146
 20
32.249959
 30
0.0
 10
112.550146
 20
36.249959
 30
0.0
 10
116.550136
 20
36.249959
 30
0.0
 10
116.550136
 20
32.249959
 30
0.0
 10
120.550136
 20
32.249959
 30
0.0
 10
120.550136
 20
36.249959
 30
0.0
 10
124.550136
 20
36.249959
 30
0.0
 10
124.550136
 20
32.249959
 30
0.0
 10
128.550135
 20
32.249959
 30
0.0
 10
128.550135
 20
36.249959
 30
0.0
 10
132.550155
 20
36.249959
 30
0.0
 10
132.550155
 20
32.249959
 30
0.0
 10
136.550125
 20
32.249959
 30
0.0
  0
SPLINE
  5
1a1
100
AcDbEntity
  8
Layer_1
 62
7
100
AcDbSpline
 70
8
 71
3
 72
8
 73
4
 74
0
 40
0
 40
0
 40
0
 40
0
 40
1
 40
1
 40
1
 40
1
 10
4.550080
 20
37.541649
 30
0.0
 10
2.334080
 20
37.541649
 30
0.0
 10
0.550080
 20
39.325649
 30
0.0
 10
0.550080
 20
41.541649
 30
0.0
  0
LWPOLYLINE
  5
1a2
100
AcDbEntity
  8
Layer_1
 62
7
100
AcDbPolyline
 90
157
 70
0
 10
4.550050
 20
69.541628
 30
0.0
 10
8.550050
 20
69.541628
 30
0.0
 10
8.550050
 20
65.541638
 30
0.0
 10
12.550050
 20
65.541638
 30
0.0
 10
12.550050
 20
69.541628
 30
0.0
 10
16.550049
 20
69.541628
 30
0.0
 10
16.550049
 20
65.541638
 30
0.0
 10
20.550049
 20
65.541638
 30
0.0
 10
20.550049
 20
69.541628
 30
0.0
 10
24.550049
 20
69.541628
 30
0.0
 10
24.550049
 20
65.541638
 30
0.0
 10
28.550049
 20
65.541638
 30
0.0
 10
28.550049
 20
69.541628
 30
0.0
 10
32.550059
 20
69.541628
 30
0.0
 10
32.550059
 20
65.541638
 30
0.0
 10
36.550059
 20
65.541638
 30
0.0
 10
36.550059
 20
69.541628
 30
0.0
 10
40.550059
 20
69.541628
 30
0.0
 10
40.550059
 20
65.541638
 30
0.0
 10
44.550058
 20
65.541638
 30
0.0
 10
44.550058
 20
69.541628
 30
0.0
 10
48.550058
 20
69.541628
 30
0.0
 10
48.550058
 20
65.541638
 30
0.0
 10
52.550058
 20
65.541638
 30
0.0
 10
52.550058
 20
69.541628
 30
0.0
 10
56.550058
 20
69.541628
 30
0.0
 10
56.550058
 20
65.541638
 30
0.0
 10
60.550058
 20
65.541638
 30
0.0
 10
60.550058
 20
69.541628
 30
0.0
 10
64.550058
 20
69.541628
 30
0.0
 10
64.550058
 20
65.541638
 30
0.0
 10
68.550058
 20
65.541638
 30
0.0
 10
68.550058
 20
69.541628
 30
0.0
 10
72.550057
 20
69.541628
 30
0.0
 10
72.550057
 20
65.541638
 30
0.0
 10
76.550057
 20
65.541638
 30
0.0
 10
76.550057
 20
69.541628
 30
0.0
 10
80.550057
 20
69.541628
 30
0.0
 10
80.550057
 20
65.541638
 30
0.0
 10
84.550057
 20
65.541638
 30
0.0
 10
84.550057
 20
69.541628
 30
0.0
 10
88.550057
 20
69.541628
 30
0.0
 10
88.550057
 20
65.541638
 30
0.0
 10
92.550057
 20
65.541638
 30
0.0
 10
92.550057
 20
69.541628
 30
0.0
 10
96.550057
 20
69.541628
 30
0.0
 10
96.550057
 20
65.541638
 30
0.0
 10
100.550046
 20
65.541638
 30
0.0
 10
100.550046
 20
69.541628
 30
0.0
 10
104.550046
 20
69.541638
 30
0.0
 10
104.550046
 20
65.541648
 30
0.0
 10
108.550046
 20
65.541648
 30
0.0
 10
108.550046
 20
69.541638
 30
0.0
 10
112.550046
 20
69.541638
 30
0.0
 10
112.550046
 20
65.541648
 30
0.0
 10
116.550046
 20
65.541648
 30
0.0
 10
116.550046
 20
69.541638
 30
0.0
 10
120.550046
 20
69.541638
 30
0.0
 10
120.550046
 20
65.541648
 30
0.0
 10
124.550046
 20
65.541648
 30
0.0
 10
124.550046
 20
69.541638
 30
0.0
 10
128.550045
 20
69.541638
 30
0.0
 10
128.550045
 20
65.541648
 30
0.0
 10
132.550045
 20
65.541648
 30
0.0
 10
132.550045
 20
69.541638
 30
0.0
 10
136.550045
 20
69.541638
 30
0.0
 10
136.550045
 20
65.541648
 30
0.0
 10
140.550045
 20
65.541648
 30
0.0
 10
140.550045
 20
69.541638
 30
0.0
 10
144.550045
 20
69.541638
 30
0.0
 10
144.550045
 20
65.541648
 30
0.0
 10
148.550045
 20
65.541648
 30
0.0
 10
148.550045
 20
69.541638
 30
0.0
 10
152.550045
 20
69.541638
 30
0.0
 10
152.550045
 20
65.541648
 30
0.0
 10
156.550044
 20
65.541648
 30
0.0
 10
156.550044
 20
69.541638
 30
0.0
 10
160.550044
 20
69.541638
 30
0.0
 10
160.550044
 20
65.541648
 30
0.0
 10
164.550044
 20
65.541648
 30
0.0
 10
164.550044
 20
69.541638
 30
0.0
 10
168.550044
 20
69.541638
 30
0.0
 10
168.550044
 20
65.541648
 30
0.0
 10
172.550044
 20
65.541648
 30
0.0
 10
172.550044
 20
69.541638
 30
0.0
 10
176.550044
 20
69.541638
 30
0.0
 10
176.550044
 20
65.541648
 30
0.0
 10
180.550044
 20
65.541648
 30
0.0
 10
180.550044
 20
69.541638
 30
0.0
 10
184.550043
 20
69.541638
 30
0.0
 10
184.550043
 20
65.541648
 30
0.0
 10
188.550043
 20
65.541648
 30
0.0
 10
188.550043
 20
69.541638
 30
0.0
 10
192.550043
 20
69.541638
 30
0.0
 10
192.550043
 20
65.541648
 30
0.0
 10
196.550043
 20
65.541648
 30
0.0
 10
196.550043
 20
69.541638
 30
0.0
 10
200.550043
 20
69.541638
 30
0.0
 10
200.550043
 20
65.541648
 30
0.0
 10
204.550043
 20
65.541648
 30
0.0
 10
204.550043
 20
69.541638
 30
0.0
 10
208.550043
 20
69.541638
 30
0.0
 10
208.550043
 20
65.541648
 30
0.0
 10
212.550042
 20
65.541648
 30
0.0
 10
212.550042
 20
69.541638
 30
0.0
 10
216.550042
 20
69.541638
 30
0.0
 10
216.550042
 20
65.541648
 30
0.0
 10
220.550042
 20
65.541648
 30
0.0
 10
220.550042
 20
69.541638
 30
0.0
 10
224.550042
 20
69.541638
 30
0.0
 10
224.550042
 20
65.541648
 30
0.0
 10
228.550042
 20
65.541648
 30
0.0
 10
228.550042
 20
69.541638
 30
0.0
 10
232.550042
 20
69.541638
 30
0.0
 10
232.550042
 20
65.541648
 30
0.0
 10
236.550042
 20
65.541648
 30
0.0
 10
236.550042
 20
69.541638
 30
0.0
 10
240.550041
 20
69.541638
 30
0.0
 10
240.550041
 20
65.541648
 30
0.0
 10
244.550041
 20
65.541648
 30
0.0
 10
244.550041
 20
69.541638
 30
0.0
 10
248.550041
 20
69.541638
 30
0.0
 10
248.550041
 20
65.541648
 30
0.0
 10
252.550041
 20
65.541648
 30
0.0
 10
252.550041
 20
69.541638
 30
0.0
 10
256.550041
 20
69.541638
 30
0.0
 10
256.550041
 20
65.541648
 30
0.0
 10
260.550041
 20
65.541648
 30
0.0
 10
260.550041
 20
69.541638
 30
0.0
 10
264.550041
 20
69.541638
 30
0.0
 10
264.550041
 20
65.541648
 30
0.0
 10
268.550050
 20
65.541648
 30
0.0
 10
268.550050
 20
69.541638
 30
0.0
 10
272.550050
 20
69.541638
 30
0.0
 10
272.550050
 20
65.541648
 30
0.0
 10
276.550050
 20
65.541648
 30
0.0
 10
276.550050
 20
69.541638
 30
0.0
 10
280.550040
 20
69.541638
 30
0.0
 10
280.550040
 20
65.541648
 30
0.0
 10
284.550040
 20
65.541648
 30
0.0
 10
284.550040
 20
69.541638
 30
0.0
 10
288.550040
 20
69.541638
 30
0.0
 10
288.550040
 20
65.541648
 30
0.0
 10
292.550060
 20
65.541648
 30
0.0
 10
292.550060
 20
69.541638
 30
0.0
 10
296.550059
 20
69.541638
 30
0.0
 10
296.550059
 20
65.541648
 30
0.0
 10
300.550059
 20
65.541648
 30
0.0
 10
300.550059
 20
69.541638
 30
0.0
 10
304.550049
 20
69.541638
 30
0.0
 10
304.550049
 20
65.541648
 30
0.0
 10
308.550049
 20
65.541648
 30
0.0
 10
308.550049
 20
69.541638
 30
0.0
 10
312.550049
 20
69.541638
 30
0.0
 10
312.550049
 20
65.541648
 30
0.0
 10
316.550049
 20
65.541648
 30
0.0
 10
316.550049
 20
69.541638
 30
0.0
  0
LWPOLYLINE
  5
1a3
100
AcDbEntity
  8
Layer_1
 62
7
100
AcDbPolyline
 90
3
 70
0
 10
0.550080
 20
65.541628
 30
0.0
 10
4.550080
 20
65.541628
 30
0.0
 10
4.550080
 20
69.541618
 30
0.0
  0
LWPOLYLINE
  5
1a4
100
AcDbEntity
  8
Layer_1
 62
7
100
AcDbPolyline
 90
2
 70
0
 10
0.550080
 20
65.541628
 30
0.0
 10
0.550080
 20
41.541469
 30
0.0
  0
SPLINE
  5
1a5
100
AcDbEntity
  8
Layer_1
 62
7
100
AcDbSpline
 70
8
 71
3
 72
8
 73
4
 74
0
 40
0
 40
0
 40
0
 40
0
 40
1
 40
1
 40
1
 40
1
 10
324.550038
 20
41.541619
 30
0.0
 10
324.550038
 20
39.325619
 30
0.0
 10
322.766058
 20
37.541619
 30
0.0
 10
320.550039
 20
37.541619
 30
0.0
  0
LWPOLYLINE
  5
1a6
100
AcDbEntity
  8
Layer_1
 62
7
100
AcDbPolyline
 90
5
 70
0
 10
316.550049
 20
69.541618
 30
0.0
 10
320.550039
 20
69.541618
 30
0.0
 10
320.550039
 20
65.541628
 30
0.0
 10
324.550038
 20
65.541628
 30
0.0
 10
324.550038
 20
41.541629
 30
0.0
  0
LWPOLYLINE
  5
1a7
100
AcDbEntity
  8
Layer_1
 62
7
100
AcDbPolyline
 90
4
 70
1
 10
4.550130
 20
61.541618
 30
0.0
 10
8.550130
 20
61.541618
 30
0.0
 10
8.550130
 20
57.541618
 30
0.0
 10
4.550130
 20
57.541618
 30
0.0
  0
LWPOLYLINE
  5
1a8
100
AcDbEntity
  8
Layer_1
 62
7
100
AcDbPolyline
 90
4
 70
1
 10
4.550130
 20
53.541558
 30
0.0
 10
8.550130
 20
53.541558
 30
0.0
 10
8.550130
 20
49.541558
 30
0.0
 10
4.550130
 20
49.541558
 30
0.0
  0
LWPOLYLINE
  5
1a9
100
AcDbEntity
  8
Layer_1
 62
7
100
AcDbPolyline
 90
4
 70
1
 10
4.550130
 20
45.541618
 30
0.0
 10
8.550130
 20
45.541618
 30
0.0
 10
8.550130
 20
41.541619
 30
0.0
 10
4.550130
 20
41.541619
 30
0.0
  0
LWPOLYLINE
  5
1aa
100
AcDbEntity
  8
Layer_1
 62
7
100
AcDbPolyline
 90
4
 70
1
 10
316.550039
 20
61.385308
 30
0.0
 10
320.550039
 20
61.385308
 30
0.0
 10
320.550039
 20
57.385308
 30
0.0
 10
316.550039
 20
57.385308
 30
0.0
  0
LWPOLYLINE
  5
1ab
100
AcDbEntity
  8
Layer_1
 62
7
100
AcDbPolyline
 90
4
 70
1
 10
316.550039
 20
53.385248
 30
0.0
 10
320.550039
 20
53.385248
 30
0.0
 10
320.550039
 20
49.385248
 30
0.0
 10
316.550039
 20
49.385248
 30
0.0
  0
SPLINE
  5
1ac
100
AcDbEntity
  8
Layer_1
 62
7
100
AcDbSpline
 70
8
 71
3
 72
8
 73
4
 74
0
 40
0
 40
0
 40
0
 40
0
 40
1
 40
1
 40
1
 40
1
 10
169.841714
 20
35.749949
 30
0.0
 10
169.841714
 20
35.749949
 30
0.0
 10
163.841754
 20
29.749969
 30
0.0
 10
149.841745
 20
29.749969
 30
0.0
  0
LWPOLYLINE
  5
1ad
100
AcDbEntity
  8
Layer_1
 62
7
100
AcDbPolyline
 90
4
 70
1
 10
316.550039
 20
45.385308
 30
0.0
 10
320.550039
 20
45.385308
 30
0.0
 10
320.550039
 20
41.385309
 30
0.0
 10
316.550039
 20
41.385309
 30
0.0
  0
SPLINE
  5
1ae
100
AcDbEntity
  8
Layer_1
 62
7
100
AcDbSpline
 70
8
 71
3
 72
8
 73
4
 74
0
 40
0
 40
0
 40
0
 40
0
 40
1
 40
1
 40
1
 40
1
 10
145.841745
 20
27.749949
 30
0.0
 10
145.841745
 20
27.749949
 30
0.0
 10
145.841735
 20
29.749929
 30
0.0
 10
147.841735
 20
29.749959
 30
0.0
  0
LWPOLYLINE
  5
1af
100
AcDbEntity
  8
Layer_1
 62
7
100
AcDbPolyline
 90
17
 70
0
 10
169.841714
 20
35.749939
 30
0.0
 10
173.841714
 20
35.749939
 30
0.0
 10
173.841714
 20
31.749949
 30
0.0
 10
169.841714
 20
31.749949
 30
0.0
 10
169.841714
 20
27.749949
 30
0.0
 10
165.841704
 20
27.749949
 30
0.0
 10
165.841704
 20
23.749949
 30
0.0
 10
161.841694
 20
23.749949
 30
0.0
 10
161.841694
 20
27.749949
 30
0.0
 10
157.841694
 20
27.749949
 30
0.0
 10
157.841694
 20
23.749949
 30
0.0
 10
153.841664
 20
23.749949
 30
0.0
 10
153.841714
 20
27.749949
 30
0.0
 10
149.841745
 20
27.749949
 30
0.0
 10
149.841715
 20
23.749949
 30
0.0
 10
145.841745
 20
23.749949
 30
0.0
 10
145.841745
 20
27.749949
 30
0.0
  0
SPLINE
  5
1b0
100
AcDbEntity
  8
Layer_1
 62
7
100
AcDbSpline
 70
8
 71
3
 72
8
 73
4
 74
0
 40
0
 40
0
 40
0
 40
0
 40
1
 40
1
 40
1
 40
1
 10
149.841715
 20
18.458289
 30
0.0
 10
149.841715
 20
18.458289
 30
0.0
 10
155.841674
 20
12.458310
 30
0.0
 10
169.841664
 20
12.458310
 30
0.0
  0
LWPOLYLINE
  5
1b1
100
AcDbEntity
  8
Layer_1
 62
7
100
AcDbPolyline
 90
2
 70
0
 10
147.841735
 20
29.749959
 30
0.0
 10
149.841745
 20
29.749959
 30
0.0
  0
SPLINE
  5
1b2
100
AcDbEntity
  8
Layer_1
 62
7
100
AcDbSpline
 70
8
 71
3
 72
8
 73
4
 74
0
 40
0
 40
0
 40
0
 40
0
 40
1
 40
1
 40
1
 40
1
 10
173.841694
 20
10.458290
 30
0.0
 10
173.841694
 20
10.458290
 30
0.0
 10
173.841694
 20
12.458270
 30
0.0
 10
171.841684
 20
12.458300
 30
0.0
  0
LWPOLYLINE
  5
1b3
100
AcDbEntity
  8
Layer_1
 62
7
100
AcDbPolyline
 90
17
 70
0
 10
149.841715
 20
18.458279
 30
0.0
 10
145.841715
 20
18.458279
 30
0.0
 10
145.841715
 20
14.458289
 30
0.0
 10
149.841715
 20
14.458289
 30
0.0
 10
149.841715
 20
10.458290
 30
0.0
 10
153.841714
 20
10.458290
 30
0.0
 10
153.841714
 20
6.458290
 30
0.0
 10
157.841734
 20
6.458290
 30
0.0
 10
157.841734
 20
10.458290
 30
0.0
 10
161.841734
 20
10.458290
 30
0.0
 10
161.841734
 20
6.458290
 30
0.0
 10
165.841754
 20
6.458290
 30
0.0
 10
165.841704
 20
10.458290
 30
0.0
 10
169.841664
 20
10.458290
 30
0.0
 10
169.841694
 20
6.458290
 30
0.0
 10
173.841694
 20
6.458290
 30
0.0
 10
173.841694
 20
10.458290
 30
0.0
  0
LWPOLYLINE
  5
1b4
100
AcDbEntity
  8
Layer_1
 62
7
100
AcDbPolyline
 90
2
 70
0
 10
171.841684
 20
12.458300
 30
0.0
 10
169.841664
 20
12.458300
 30
0.0
  0
LWPOLYLINE
  5
1b5
100
AcDbEntity
  8
Layer_1
 62
7
100
AcDbPolyline
 90
4
 70
1
 10
294.950009
 20
58.985288
 30
0.0
 10
298.150009
 20
58.985288
 30
0.0
 10
298.150009
 20
55.785288
 30
0.0
 10
294.950009
 20
55.785288
 30
0.0
  0
LWPOLYLINE
  5
1b6
100
AcDbEntity
  8
Layer_1
 62
7
100
AcDbPolyline
 90
4
 70
1
 10
282.950040
 20
58.985288
 30
0.0
 10
286.150040
 20
58.985288
 30
0.0
 10
286.150040
 20
55.785288
 30
0.0
 10
282.950040
 20
55.785288
 30
0.0
  0
LWPOLYLINE
  5
1b7
100
AcDbEntity
  8
Layer_1
 62
7
100
AcDbPolyline
 90
4
 70
1
 10
306.950009
 20
58.985288
 30
0.0
 10
310.150009
 20
58.985288
 30
0.0
 10
310.150009
 20
55.785288
 30
0.0
 10
306.950009
 20
55.785288
 30
0.0
  0
LWPOLYLINE
  5
1b8
100
AcDbEntity
  8
Layer_1
 62
7
100
AcDbPolyline
 90
4
 70
1
 10
294.950009
 20
50.985288
 30
0.0
 10
298.150009
 20
50.985288
 30
0.0
 10
298.150009
 20
47.785288
 30
0.0
 10
294.950009
 20
47.785288
 30
0.0
  0
LWPOLYLINE
  5
1b9
100
AcDbEntity
  8
Layer_1
 62
7
100
AcDbPolyline
 90
4
 70
1
 10
282.950040
 20
50.985288
 30
0.0
 10
286.150040
 20
50.985288
 30
0.0
 10
286.150040
 20
47.785288
 30
0.0
 10
282.950040
 20
47.785288
 30
0.0
  0
LWPOLYLINE
  5
1ba
100
AcDbEntity
  8
Layer_1
 62
7
100
AcDbPolyline
 90
4
 70
1
 10
306.950009
 20
50.985288
 30
0.0
 10
310.150009
 20
50.985288
 30
0.0
 10
310.150009
 20
47.785288
 30
0.0
 10
306.950009
 20
47.785288
 30
0.0
  0
LWPOLYLINE
  5
1bb
100
AcDbEntity
  8
Layer_1
 62
7
100
AcDbPolyline
 90
4
 70
1
 10
30.150139
 20
59.141598
 30
0.0
 10
26.950139
 20
59.141598
 30
0.0
 10
26.950139
 20
55.941598
 30
0.0
 10
30.150139
 20
55.941598
 30
0.0
  0
LWPOLYLINE
  5
1bc
100
AcDbEntity
  8
Layer_1
 62
7
100
AcDbPolyline
 90
4
 70
1
 10
42.150138
 20
59.141598
 30
0.0
 10
38.950139
 20
59.141598
 30
0.0
 10
38.950139
 20
55.941598
 30
0.0
 10
42.150138
 20
55.941598
 30
0.0
  0
LWPOLYLINE
  5
1bd
100
AcDbEntity
  8
Layer_1
 62
7
100
AcDbPolyline
 90
4
 70
1
 10
18.150099
 20
59.141598
 30
0.0
 10
14.950099
 20
59.141598
 30
0.0
 10
14.950099
 20
55.941598
 30
0.0
 10
18.150099
 20
55.941598
 30
0.0
  0
LWPOLYLINE
  5
1be
100
AcDbEntity
  8
Layer_1
 62
7
100
AcDbPolyline
 90
4
 70
1
 10
30.150139
 20
51.141598
 30
0.0
 10
26.950139
 20
51.141598
 30
0.0
 10
26.950139
 20
47.941598
 30
0.0
 10
30.150139
 20
47.941598
 30
0.0
  0
LWPOLYLINE
  5
1bf
100
AcDbEntity
  8
Layer_1
 62
7
100
AcDbPolyline
 90
4
 70
1
 10
42.150138
 20
51.141598
 30
0.0
 10
38.950139
 20
51.141598
 30
0.0
 10
38.950139
 20
47.941598
 30
0.0
 10
42.150138
 20
47.941598
 30
0.0
  0
LWPOLYLINE
  5
1c0
100
AcDbEntity
  8
Layer_1
 62
7
100
AcDbPolyline
 90
4
 70
1
 10
18.150099
 20
51.141598
 30
0.0
 10
14.950099
 20
51.141598
 30
0.0
 10
14.950099
 20
47.941598
 30
0.0
 10
18.150099
 20
47.941598
 30
0.0
  0
LWPOLYLINE
  5
1c1
100
AcDbEntity
  8
Layer_1
 62
7
100
AcDbPolyline
 90
4
 70
1
 10
164.212584
 20
59.141598
 30
0.0
 10
161.012584
 20
59.141598
 30
0.0
 10
161.012584
 20
55.941598
 30
0.0
 10
164.212584
 20
55.941598
 30
0.0
  0
LWPOLYLINE
  5
1c2
100
AcDbEntity
  8
Layer_1
 62
7
100
AcDbPolyline
 90
4
 70
1
 10
176.212584
 20
59.141598
 30
0.0
 10
173.012584
 20
59.141598
 30
0.0
 10
173.012584
 20
55.941598
 30
0.0
 10
176.212584
 20
55.941598
 30
0.0
  0
LWPOLYLINE
  5
1c3
100
AcDbEntity
  8
Layer_1
 62
7
100
AcDbPolyline
 90
4
 70
1
 10
152.212615
 20
59.141598
 30
0.0
 10
149.012615
 20
59.141598
 30
0.0
 10
149.012615
 20
55.941598
 30
0.0
 10
152.212615
 20
55.941598
 30
0.0
  0
LWPOLYLINE
  5
1c4
100
AcDbEntity
  8
Layer_1
 62
7
100
AcDbPolyline
 90
4
 70
1
 10
164.212584
 20
51.141598
 30
0.0
 10
161.012584
 20
51.141598
 30
0.0
 10
161.012584
 20
47.941598
 30
0.0
 10
164.212584
 20
47.941598
 30
0.0
  0
SPLINE
  5
1c5
100
AcDbEntity
  8
Layer_1
 62
7
100
AcDbSpline
 70
8
 71
3
 72
8
 73
4
 74
0
 40
0
 40
0
 40
0
 40
0
 40
1
 40
1
 40
1
 40
1
 10
0.550130
 20
4.249990
 30
0.0
 10
0.550130
 20
2.034000
 30
0.0
 10
2.334130
 20
0.249990
 30
0.0
 10
4.550130
 20
0.249990
 30
0.0
  0
SPLINE
  5
1c6
100
AcDbEntity
  8
Layer_1
 62
7
100
AcDbSpline
 70
8
 71
3
 72
8
 73
4
 74
0
 40
0
 40
0
 40
0
 40
0
 40
1
 40
1
 40
1
 40
1
 10
136.550125
 20
0.249990
 30
0.0
 10
138.766115
 20
0.249990
 30
0.0
 10
140.550125
 20
2.034000
 30
0.0
 10
140.550125
 20
4.249990
 30
0.0
  0
LWPOLYLINE
  5
1c7
100
AcDbEntity
  8
Layer_1
 62
7
100
AcDbPolyline
 90
2
 70
0
 10
320.550019
 20
37.541679
 30
0.0
 10
4.550090
 20
37.541619
 30
0.0
  0
LWPOLYLINE
  5
1c8
100
AcDbEntity
  8
Layer_1
 62
7
100
AcDbPolyline
 90
2
 70
0
 10
4.550110
 20
0.249990
 30
0.0
 10
136.550095
 20
0.249990
 30
0.0
  0
LWPOLYLINE
  5
1c9
100
AcDbEntity
  8
Layer_1
 62
7
100
AcDbPolyline
 90
2
 70
0
 10
0.550120
 20
4.249990
 30
0.0
 10
0.550120
 20
28.249949
 30
0.0
  0
LWPOLYLINE
  5
1ca
100
AcDbEntity
  8
Layer_1
 62
7
100
AcDbPolyline
 90
2
 70
0
 10
140.550125
 20
4.248330
 30
0.0
 10
140.550125
 20
28.249949
 30
0.0
  0
ENDSEC
  0
SECTION
  2
OBJECTS
  0
DICTIONARY
  5
C
330
0
100
AcDbDictionary
  3
ACAD_GROUP
350
D
  3
ACAD_MLINESTYLE
350
17
  0
DICTIONARY
  5
D
330
C
100
AcDbDictionary
  0
DICTIONARY
  5
1A
330
C
100
AcDbDictionary
  0
DICTIONARY
  5
17
330
C
100
AcDbDictionary
  3
STANDARD
350
18
  0
DICTIONARY
  5
19
330
C
100
AcDbDictionary
  0
ENDSEC
  0
EOF
